<?xml version="1.0" encoding="utf-8"?>
<!-- Generator: Adobe Illustrator 19.1.0, SVG Export Plug-In . SVG Version: 6.00 Build 0)  -->
<svg version="1.1" id="Layer_1" xmlns="http://www.w3.org/2000/svg" xmlns:xlink="http://www.w3.org/1999/xlink" x="0px" y="0px"
	 viewBox="0 0 100 100" style="enable-background:new 0 0 100 100;" xml:space="preserve">
<style type="text/css">
	.st0{fill:#FFFFFF;}
	.st1{fill:#272C6F;}
	.st2{font-family:'Arial-Black';}
	.st3{font-size:60px;}
	.st4{fill:#ED1C24;}
	.st5{font-size:100px;}
</style>
<g>
	<g>
		<path class="st0" d="M115.2,486.8c-85.9,0-171.8,0-257.8,0c0-261.8,0-523.5,0-785.3c141.6,0,283.2,0,424.8,0c0,136,0,272,0,408
			c-1.8-1.5-2.7-3.2-2.1-5.7c0.5-2.3-0.5-4.3-1.9-6.1c-0.9,0.4-1.6,0.7-2.6,1.2c-0.8-1-1.5-1.9-2.2-2.8c-2.2-2.7-3.9-5.9-7.7-6.7
			c-1.2-0.3-2-0.3-2.7,0.7c-0.7,1.1-1.8,1.8-3,2.2c-2.4,0.8-4.8,1.7-7.2,2.6c-3.4,1.2-6.8,2.3-10.2,3.4c-2,0.7-4.1,1.3-6.2,1.7
			c-1.3,0.2-2.2,0.7-3.1,1.6c-2.8,3.3-5.7,6.4-8.5,9.7c-5.1,6-10.3,11.8-15.1,18c-4.9,6.4-9.5,13-14.1,19.7
			c-1.8,2.6-3.2,5.5-4.8,8.3c-0.7,1.1-0.8,2.3-0.3,3.4c0.5,1.1,1.4,1.2,2.3,0.4c0.5-0.5,1-1,1.5-1.4c1.2-0.9,2.5-1.7,3.5-2.8
			c2.7-3,5.2-6,7.7-9.1c0.4-0.5,0.8-1.2,0.9-1.9c0.2-1.4,0.6-2.5,2.1-2.8c1-0.2,1.3-0.9,0.9-1.8c-0.9-2.1,0.2-3.7,1.4-5
			c2.7-3,5.1-6.1,7.4-9.4c1-1.4,2.1-2.6,3.3-3.8c1.4-1.5,3-2.9,4.5-4.2c1-0.9,2.1-1.7,3.2-2.4c1.2-0.7,2.5-1,3.7-1.6
			c0.7-0.3,1.4-1.1,2.2-0.3c0.8,0.7,0.4,1.6,0.2,2.5c-0.3,0.8-0.6,1.7-0.8,2.5c-0.1,0.7,0,1.4,0.2,2.1c0.7,2-0.1,4.4-2.2,5.2
			c-2.4,0.9-4.2,2.4-6.1,4.1c-3.8,3.4-7.3,6.9-10.3,11c-1.4,1.9-2.3,4-2.4,6.4c-0.1,2,0.9,2.8,2.9,2.2c1.8-0.5,3.5-0.9,5-2.2
			c0.4-0.4,1-0.5,1.5-0.8c2.8-1.7,5.7-3.2,8.3-5.2c4.8-3.8,9.5-7.7,14.7-11c0.8-0.5,1.9-0.8,2.9-0.8c1.1,0,1.7,0.9,1.4,2
			c-0.1,0.4-0.4,0.8-0.6,1.3c-1.9,3.8-4.8,6.8-7.5,9.9c-5,5.8-10.6,11.1-16.6,15.9c-4.6,3.6-9.2,7.1-13.9,10.6
			c-1.9,1.4-3.9,2.7-5.9,4c-3,1.9-6.2,3.7-9.1,5.7c-2,1.3-3.8,3-5.5,4.6c-2.7,2.4-5.6,4.7-7.7,7.5c-2.6,3.5-5.9,6.7-6.6,11.4
			c0,0.2-0.2,0.5-0.3,0.6c-1.7,1.5-2.5,3.5-3.4,5.4c-0.3,0.6-0.7,1-1.1,1.5c-0.9,1.1-1.8,2.2-2.7,3.3c-2.7,3.3-4.1,7.4-7.3,10.3
			c-0.2,0.2-0.2,0.4-0.4,0.6c-2.5,3.2-5.1,6.3-7.6,9.5c0,0.1-0.1,0.1-0.2,0.2c-2.5,2.6-5,5.1-7.4,7.7c-0.3,0.3-0.4,0.7-0.7,1
			c-0.9,1-1.7,2.2-2.8,3c-2.3,1.6-3.3,4.3-5.2,6.2c-0.2,0.2-0.2,0.4-0.3,0.7c-0.1,3.1-2.1,5.3-4,7.4c-0.9,1-2.3,1.8-3.6,2.2
			c-2.9,0.8-4.2,3-5.5,5.2c-0.6,1-1.1,2-2.1,2.5c-2.6,1.2-4.2,3.5-5.5,5.8c-1.5,2.6-3.1,5-5.2,7.1c-1.2,1.1-2,2.5-1.5,4.3
			c0.3,1,0,1.8-1,2.1c-1.3,0.4-1.6,1.3-1.7,2.6c0,0.7-0.4,1.4-0.8,1.9c-1.2,1.6-2.5,3.1-3.6,4.8c-1,1.5-2.2,2.5-3.9,2.9
			c-0.9,0.2-1.5,0.7-2.1,1.5c-1.5,1.9-3.1,3.6-4.7,5.4c-0.1,0.1-0.3,0.2-0.4,0.3c-1.8,0.4-3,1.8-4.5,2.7c-1.3,0.8-2,1.7-2.3,3.1
			c-0.3,1.5-1.2,2.2-2.6,2.8c-1.3,0.5-2.9,1.5-3.2,2.6c-0.9,2.9-3.1,4.6-5,6.6c-1.2,1.2-2.5,2.3-3.1,3.9c-0.8,2.1-2.3,3.2-4.3,3.8
			c-1,0.3-1.7,0.8-2.1,1.8c-0.3,0.6-0.7,1-1.1,1.6c-0.7,1-1.6,2-2.1,3.1c-0.6,1.2-1,2.5-1.4,3.8c-0.3,1.1-0.8,1.9-2.1,1.8
			c-0.4,0-0.8,0.1-1.2,0.1c-0.3,0.7-0.4,1.5-0.8,2c-1.4,1.9-2.8,3.8-4.3,5.7c-1.9,0.2-3,1.6-4.2,3c-0.8-0.2-1.6-0.4-2.3-0.6
			c-1.3,3.3-0.4,3.2-3.7,5.1c-0.3,0.2-0.6,0.5-0.9,0.8c-2.5,2.6-4.9,5.2-7.4,7.8c-1.1,1.1-1.9,2.3-2.4,3.8c-0.9,2.7-1.7,5.5-3.7,7.7
			c-0.3,0.3-0.5,0.9-0.5,1.3c0,1.7-0.8,3.1-1.6,4.4c-0.6,1.1-1.2,2.3-0.5,3.7c0.5,0,1.1,0,1.6,0c0.9,0.1,1.5,0.5,1.2,1.6
			c-0.7,2.5-0.4,4.9,0.3,7.3c0.2,0.8,0.1,1.8-0.1,2.5c-1,3.4-2.3,6.6-2.5,10.2c0,0.5-0.3,1.1-0.5,1.6c-0.6,1.2-0.8,2.3-0.4,3.7
			c0.6,1.7-0.2,2.8-1.8,3.7c-0.9,0.5-1.8,1.1-2.4,1.8c-1,1.2-2.3,1.4-3.7,1.5c-1.1,0.1-1.2-1.1-1.8-1.7c-0.4-0.4-1.1-0.9-1.5-0.8
			c-1.4,0.3-2.4-0.4-3.4-1c-1.3-0.9-2.4-1.1-3.7-0.2c-0.5,0.4-1.4,0.2-2.1,0.3c-0.6,0.1-1.2,0.2-1.9,0.2c-3.7,0.3-4.1,4.2-6.7,5.8
			c-0.1,0-0.1,0.2-0.1,0.2c0.4,1.2,0.6,2.5,1.2,3.6c0.5,1,1.6,0.7,2.4,0.4c3.1-1.2,6.2-1,9.4-0.6c0.9,0.1,2-0.2,2.9-0.6
			c0.9-0.4,1.6-0.6,2.5-0.2c1.8,0.8,3.1,0.1,4.2-1.3c0.7-0.9,1.3-1.8,2-2.7c0.9-0.9,2-1.1,2.7-0.2c1.2,1.6,2.7,2.7,4.7,3.3
			c0.3,0.1,0.6,0.5,0.8,0.7c2.3-1.1,2.4-1.1,3.7,0.9c0.5,0.7,1.2,1.3,1.9,1.7c1.8,1.1,3.7,1.7,5.9,1.8c1,0,2.1,0.2,3,0.7
			c1.9,0.9,3.8,1.2,5.8,1.2c1.8,0.1,3.7,0.3,5.5,0.3c0.7,0,1.5,0,2.1-0.3c1.6-0.8,3.4-0.8,5.1-1.1c2.5-0.4,5.1-0.6,7.1-2.5
			c0.9-0.9,1.8-1.8,2.6-2.8c1.6-1.7,3.2-3.3,4.7-5c0.8-0.9,1.7-1,2.8-0.4c2,1,2.2,0.9,3.6-0.8c1.5-1.8,4.8-2.7,6.9-1.6
			c1.5,0.8,2.7,0.7,4-0.2c1.1-0.8,2.2-1.6,3.4-2.3c1.2-0.7,2.3-1.5,3.6-1.9c3.1-0.9,5.7-2.3,7.8-4.8c0.6-0.7,1.3-1.2,2.3-0.9
			c2.3,0.6,4.7,0.7,6.6,2.3c0.7,0.5,1.3,1.1,2.2,1.8c0.8-1.5,1.5-2.8,2.3-4c1.2-1.9,2.6-3.9,4.8-4.4c4.1-1,8.1-2.6,12.4-2.3
			c0.5,0,1.1-0.2,1.6-0.4c1.5-0.6,3-1.3,4.7-2.1c0.6,2,1.6,3.8,0.4,5.6c-1.3,2-2.9,3.7-4.5,5.5c-0.5,0.5-1.3,1-2.1,1.1
			c-2.2,0.4-4.1,1.6-5.7,2.9c-1.6,1.3-3.7,2.3-3.9,4.8c0,0.4-0.6,0.7-0.9,1.1c-0.3,0.5-0.7,1.1-0.9,1.7c-1,2.9-2.9,5.1-4.8,7.4
			c-0.5,0.6-1.2,1.1-1.9,1.3c-3.2,1.1-5.6,3-7.5,5.7c-0.6,0.8-1.2,1.8-2,2.4c-3.1,2.5-6.2,5-9.5,7.3c-2.6,1.8-5.6,3.1-7.7,5.6
			c-0.6,0.7-1.3,1.2-1.9,1.8c-1.2,1.1-2.3,2.2-4,2.5c-1.9,0.4-3.7,0.9-5.6,1.2c-8,1-16,1.8-24,3c-4.5,0.7-9.1,0.6-13.6,0.9
			c-0.7,0.1-1.5,0.1-2.1-0.1c-1.3-0.4-1.9,0.4-2.3,1.2c-2.5-0.2-4.7-0.5-7-0.7c-0.4,1.5,0,2.5,0.6,3.5c1.7,3,3.5,5.9,5.1,8.9
			c1.5,2.9,3.6,4.6,6.9,5.1c4.6,0.7,9,2.1,13.7,1.7c1.8-0.2,3.6-0.7,5.4-0.7c2.5,0,4.3-1.1,5.9-2.7c1.4-1.4,2.7-2.9,4.1-4.4
			c1.1-1.1,2.2-2.3,3.5-3.2c4-3.1,8.1-5.9,12.1-9c1.6-1.3,3.3-1.8,5.3-1.9c2.8-0.2,5.6-0.4,8.1-1.9c1.1-0.6,1.6-0.3,2,0.8
			c1.3,3.2,2.7,6.5,4.1,9.7c0.7,1.5,1.8,1.7,3,0.6c0.6-0.5,1-1.1,1.6-1.7c1.1,1.6,1,1.6,0.8,3.5c-0.3,2-0.5,4-0.5,5.9
			C115,482,115.2,484.4,115.2,486.8z M17-191.3c1.6,0,3.2,0.4,4.6-0.5c0.2-0.1,0.5-0.1,0.7,0c0.4,0.2,1,0.4,1.1,0.7
			c0.1,0.3-0.2,1.1-0.5,1.1c-1.8,0.6-2.4,2.1-3,3.5c-0.5,1.2-1.2,1.7-2.5,1.9c-1.3,0.2-2.5,0.7-2.6,2.3c-0.2,2.4-0.8,4.7-3.3,5.9
			c-0.1,0.1-0.2,0.2-0.3,0.4c-1.1,1.8-2.2,3.5-3.2,5.3c-0.2,0.3,0,0.8,0.1,1.5c1.1-1.5,1.2-3.4,3.3-3c0.2-3.2,0.9-4.2,3.5-5
			c0.2-0.6,0.2-1.4,0.6-1.7c1-0.8,1.2-1.8,1.1-3c0.8-0.3,1.4-0.6,2.1-0.9c1.3-0.4,2.7-1.2,4.1-0.1c0.3,0.2,1-0.1,1.5-0.3
			c0.5-0.1,0.9-0.3,1.8-0.6c-0.8,1.7-1.2,3-3,2.9c-0.3,0-0.7,0.3-0.9,0.6c-0.7,1-1.7,1.4-2.8,1.7c-0.7,0.2-1.4,0.6-2.1,0.9
			c1,2.8,1.3,3,3.7,2.1c0.2-0.1,0.5,0.1,1,0.1c-0.9,1.5-2,2-3.2,1.5c-0.2,1.2-0.4,2.2-0.6,3.1c0.1,0,0.3,0,0.3-0.1
			c0.7-0.6,1.4-0.7,2.1-0.1c0.7,0.6,0.6,1.4,0.2,2.2c-0.2,0.4-0.4,0.7-0.6,1c-0.6,1.5-1.2,3.1-1.7,4.6c-0.1,0.3,0.3,0.9,0.5,1.3
			c0.2,0.4,0.4,0.8,0.8,1.3c-2.5,0.6-2.3,2.7-2.7,4.4c-0.2,1,0,1.6,0.9,2.2c1.9,1.2,2.3,2.8,1,4.6c-1,1.5-0.9,2.8-0.4,4.3
			c0.8,2.3,0.8,2.3-0.8,4.1c1.1,1.4,1.1,2.9,0.4,4.4c-0.1,0.3-0.2,0.6-0.2,0.9c-0.8,6.3-1.8,12.6-2.5,18.9
			c-0.4,3.8-0.8,7.6-0.1,11.5c0.5,2.9,1,5.6,2.1,8.3c0.4,1,1.2,1.9,1.7,2.8c0.5,1,1,2,1.5,3c0.2,0,0.3-0.1,0.5-0.1
			c0.1-1.5,0.2-3,0.3-4.5c0.2-5.7-0.2-11.5,1.2-17.2c0.4-1.6,1.4-2.5,3-2.4c0.6,0,1.1,0.2,1.7,0.3c1.5,0.3,2.9,0.3,4.5-0.2
			c1.3-0.4,2.8-1.3,4.4-0.5c0.5,0.2,1.2-0.1,1.8-0.3c0.7-0.2,1.3-0.5,2-0.7c1.4-0.4,2.5,0.4,3.4,1.3c0.9,0.8,0,1.6-0.2,2.4
			c-0.5,1.6-0.5,3.6-1.5,4.6c-1.1,1.1-3.2,1.2-4.8,2c-1.3,0.6-2.8,1-3.9,2.5c3-1.3,4.6-1.5,6.1-0.9c-0.3,1.5-1.4,2.3-2.6,2.9
			c-4.3,2.2-6.4,6-8.1,10.3c-0.1,0.3-0.1,0.7-0.1,0.9c2.3-0.6,4.5-1.1,6.6-1.6c-0.8-3.7,0.5-4.6,3.3-5.6c0.5,1.4,1,2.8,1.5,4.3
			c0.3,1.1,0.9,1.9,1.9,2.2c0.4,0.1,0.8,0.4,1.2,0.5c-0.3,2.6-3.8,2.2-4.1,4.7c2.1,0.4,4.2,0.8,6.2,1.1c0.4,0.1,0.8,0,1.2-0.2
			c3.3-1.6,6.7-3.1,8.9-6.3c0.3-0.4,0.7-1,1.2-1.2c1.1-0.4,1.5-1.4,1.8-2.4c0.3-1.1,0.6-2.2,0.9-3.2c0.6-2.3,1.1-4.6,1.9-6.9
			c0.7-1.9,0.6-3.7,0.2-5.6c-0.4-1.6-0.8-3.2-1.1-4.8c-0.2-1,0.4-1.9,1.3-2c1.6-0.3,2.7-1.3,3.5-2.6c0.5-0.9,1.3-1.2,2.2-0.4
			c0.3,0.2,0.7,0.3,1.1,0.5c0.2-0.5,0.4-0.9,0.5-1.2c0.6-1.4,1.3-1.7,2.2-0.7c1.6,1.7,3,3.7,2.9,6.1c-0.2,3.2-0.2,6.4-1.2,9.5
			c-0.5,1.7-0.6,3.4-0.9,5.2c-0.4,2.3-0.3,4.8-2.5,6.4c-0.4,0.3-0.4,1.1-0.5,1.7c-0.5,1.9-0.8,3.9-1.5,5.8c-1,2.8-1.9,5.6-2.1,8.5
			c-0.1,1-0.1,2.1-0.3,3.1c-1,4.5-1.1,9,0.9,13.3c0,0.1-0.1,0.3-0.3,0.6c-0.9-0.5-1.8-0.9-2.6-1.4c-3-1.7-5.9-0.2-7.5,1.3
			c-2.1,2.1-1.8,5.3,0.6,6.5c1.1,0.6,2.4,0.8,3.6,1.1c0.8,0.2,1.6-0.1,2.1-0.8c0.7-0.9,1.4-1.9,2.2-2.7c0.9-0.9,1.8-1.7,2.7-2.5
			c2,1.4,2,2,0.2,3c-0.3,0.2-0.7,0.2-0.8,0.4c-0.2,0.4-0.4,0.9-0.3,1.3c0,0.2,0.6,0.4,1,0.4c0.9,0,1.7-0.3,2.6-0.3
			c1.5,0.1,2.3,0.9,2.2,2.3c-0.3,2.4-0.8,4.9-1.2,7.3c-0.1,0.6-0.4,1.2-0.5,1.9c-0.2,1.8,0.3,2.4,2,3c0.5,0.2,0.9,0.4,1.4,0.7
			c-1.2,1.8-1.3,1.8-3.4,2.6c-3.1,1.1-5.8,3-8.1,5.3c-2,2.1-3.8,4.5-5.5,6.9c-0.7,0.9-1.5,1.3-2.6,1.4c-2.9,0.1-4.2,1.2-4.9,3.9
			c-0.6,2.4,0.8,4,3.2,3.6c0.7-0.1,1.6-0.5,2.1-1c2.6-2.7,5.9-3.4,9.4-3.7c1.9-0.2,3.8-0.3,5.7-0.4c0.9,0,1.7,0.1,2.6,0.2
			c1.4,0.2,2.7,0.6,4.3,0.9c0.2,1.2,0.2,2.5-1.3,3.2c-1,0.5-1.4,1.4-1.7,2.4c-0.6,2.2-1.5,4.4-2.1,6.6c-0.2,0.8-0.2,1.9,0.3,2.5
			c1.1,1.5,2.5,2.9,3.7,4.3c0.7,0.8,1.3,1.6,2.1,2.3c0.4,0.3,1.1,0.8,1.3,0.7c1.7-0.8,3.3,0.3,4.9,0.1c0.9-0.1,1.3,0.5,1.2,1.4
			c-0.2,1.7-0.4,3.5-0.5,5.2c0,0.5,0.2,1,0.2,1.5c2.9,0.3,3.4,1,2.3,3.5c-0.6,1.4-1.4,2.7-2.3,3.9c-1.1,1.6-1.1,2.1,0.3,3.2
			c1.1,0.9,1.6,1.9,1.9,3.2c0.5,2.3,0.6,2.3,2.8,2.5c0.9,0.1,1.7,0,2.6-0.1c1.6-0.2,3.3-0.7,4.9-0.6c1.3,0.1,2.6,0.3,3.9-0.1
			c0.2-0.1,0.7,0.1,0.9,0.3c1.5,1.2,3,0.8,4.4-0.1c0.4-0.2,0.9-0.1,1.9-0.3c-1.2,1.8-1.8,3.3-0.1,5.1c-1.7,0.4-3.2,0.6-4.3,1.2
			c-1.1,0.6-2.7,1.1-2.8,3c1,0,1.9-0.2,2.7,0c1.2,0.4,2.2,0.8,3.3-0.3c0.2-0.2,0.8,0.2,1.2,0.3c-0.1,0.4-0.1,0.9-0.4,1.2
			c-0.2,0.3-0.7,0.4-1,0.6c-0.6,0.5-0.7,1-0.2,1.5c1.5,0,2.8,0,4.2,0c0.2-0.5,0.2-1.1,0.5-1.5c0.3-0.4,1-0.8,1.3-0.6
			c0.8,0.2,0.8,1,0.4,1.6c-0.8,0.9-0.8,1.9-0.6,2.9c0,0.4-0.1,0.8-0.2,1.2c-0.7,1.2-0.5,2,0.9,2.7c1.6,0.8,1.6,1.6,0.4,3
			c-0.9,1-2,1.9-2.9,2.9c-2.1,2.4-4.1,4.8-3.2,8.3c0.1,0.2,0.1,0.5,0,0.7c-0.8,1.7-0.2,3.1,1,4.5c-1,1-1.8,1.9-2.7,2.8
			c-0.7,0.7-1,1.4-0.2,2.3c1.8-0.7,2.4-3.2,4.8-3c-0.3,1.8-3,1.7-2.8,3.9c0.4-0.1,0.7-0.2,0.8-0.3c3.6-3.1,7.1-6.2,10.7-9.2
			c4.1-3.4,8.2-6.9,12.5-10.1c7.5-5.4,15.2-10.6,22.8-15.9c1.6-1.1,3.2-2.7,5-3.2c3-0.8,4.9-3.7,8.2-3.6c0.4,0,0.7-0.6,1.2-0.8
			c1.8-0.7,3.5-1.8,5.3-1.9c3-0.1,5.8-0.1,8.5-1.6c1.6-0.9,2.3-0.7,3.5,0.7c0.3,0.3,0.7,0.5,1,0.8c0.6-0.9,1.1-1.7,1.8-2.7
			c0.5,0.8,0.8,1.4,1.2,1.8c0.8,1,1.6,1.1,2.5,0.5c0.9-0.7,1-1.5,0.4-2.5c-1.2-1.7-1.2-1.7,0.2-3c1.1-1.1,1.1-1.5,0.2-2.9
			c-0.3-0.4-0.5-0.9-1-1.9c1.4,0.5,2.2,0.8,3.3,1.2c0-1,0.3-1.9-0.1-2.5c-0.7-1.3,0.2-2.2,0.5-3.4c0.3-1.6,1.5-2,2.6-2.5
			c1.8-0.8,3.7-1.5,5.5-2.4c2.8-1.4,3.3-3.5,1.8-6.4c-0.7,0.1-1.5,0.2-2.3,0.3c-0.5-1.8-0.7-3.4-1.3-5c-0.7-1.8-0.9-3.5-0.9-5.4
			c0-1.8,0.1-3.8-0.5-5.5c-0.7-2.1-1-4.2-1.2-6.3c-0.2-2.9-0.6-5.9-0.8-8.8c-0.1-2,0.1-4.1,0.2-6.1c2.2,0,2.5,0.2,2.7,1.8
			c0.2,1.4,0.2,2.9,1.2,4.2c0.4-0.2,0.8-0.3,1-0.6c0.7-0.9,0.5-1.8,0.1-2.7c-0.4-1-0.1-1.7,0.7-2.4c1.4-1.2,2.7-2.7,3.9-4.1
			c0.9-1.1,1.5-2.4,2.5-3.5c1.8-2.1,3-4.5,4-7.1c1.6-4.1,3.2-8.2,5-12.2c1.2-2.8,2-5.6,2.1-8.6c0.1-4.8,0.9-9.5,2.1-14.2
			c0.3-1.2,0.4-2.5,0.3-3.8c-0.3-4.7-4.1-8.6-8.8-8.9c-1.2-0.1-2.4,0.1-3.6,0c-1.5-0.1-2-1-1.2-2.2c0.3-0.5,0.8-1,0.9-1.6
			c0.8-2.8,1.5-5.7,2.2-8.5c0.3-1.4,0.7-2.8,0.7-4.2c0.1-2.3,0.7-4.4,1.8-6.4c0.2-0.4,0.5-0.9,0.4-1.3c-0.4-1.4,0.2-2.5,0.8-3.7
			c0.8-1.6,0.9-3-0.2-4.5c-0.5-0.6-0.7-1.4-0.1-2.3c0.5,0.4,0.8,0.7,1.4,1.1c0-0.6,0-0.9,0.1-1.2c0.3-2.6-1.7-5.2,0.1-7.8
			c0.1-0.1,0-0.3-0.1-0.5c-0.6-1.8-1.1-3.6-1.7-5.4c-0.4-1.4-0.8-2.9,0.3-4.3c0.7,0.5,1.3,1,1.9,1.4c-0.6-2-0.9-3.9-2.3-5.5
			c-0.8-0.9-1.3-2-1.8-3.1c-0.4-0.8-0.7-1.6,0.2-2.7c0.7,0.9,1.4,1.8,2.1,2.7c0.1-2.2-0.3-3.2-2-4.6c-0.3,0.2-0.7,0.4-1,0.6
			c0.7-1.4,0.1-2.4-0.6-3.4c-1.6-2.4-3.1-4.8-4.5-7c-0.5,0-1.1,0.3-1.5,0.1c-1-0.5-1.6-1.4-1.9-2.7c0.7,0.1,1.1,0.1,1.7,0.1
			c-0.6-1.4-1.3-2.9-0.2-4.3c1.4,1.6,2.7,3.2,4.1,4.8c0.6,0.7,1.1,0.7,1.8,0c-1.2-1.6-2.2-3.2-3.4-4.7c-0.8-1.1-1.7-2.2-2.8-2.9
			c-0.8-0.5-1.3-1.1-1.6-2c-0.4-1-0.9-2.1-1.1-3.2c-0.3-1.7-1.2-2.3-2.7-2.5c-3-0.5-4.4-2.6-5.8-5.1c0.6-0.1,1.2-0.1,1.5,0.2
			c0.9,0.7,1.6,1.6,2.4,2.3c0.7,0.6,1.2,1.6,2.4,1c0-0.4,0.1-0.7,0-1c-1.6-3.7-3.6-7.1-6.5-9.9c-2.8-2.7-6.1-4.6-9.6-6.2
			c-4-1.8-8-3.5-12-5.5c-6-2.9-12-5.8-16.8-10.8c-3.6-3.9-8.6-5.2-14.4-5.7c0.7,0.5,1,0.8,1.3,0.9c2,0.8,4,1.5,6,2.3
			c0.5,0.2,1,0.6,1.3,0.8c-0.7,1.1-1.3,1.9-2,3c-0.2,0.1-1,0.2-2.2,0.6c1.1,0.5,1.6,0.7,2.2,1c0.5,0.3,1,0.6,1.5,0.9
			c0,0.2-0.1,0.3-0.1,0.5c-0.6,0.1-1.1,0.3-1.7,0.4c-0.6,0.1-1.5,0-1.2,1c0.1,0.3,0.8,0.5,1.3,0.6c0.7,0.1,1.6-0.3,2.3,0.9
			c-1.5,0.1-2.8,0.5-3.9,0.1c-0.9-0.3-1.4-1.5-2.2-2.4c-1.2-0.3-2.9-0.1-3.7-1.7c0.4-0.5,0.7-1,1.3-1.7c-1.5,0.3-2.6,0.7-3.7,0.6
			c-1-0.1-2-0.8-3.1-1.3c0,0.7,0,1.2,0,1.9c-1,0-1.9-0.2-2.7,0c-2.1,0.7-3.3-0.9-4.8-1.8c-0.1-0.1,0-0.4,0.1-0.9c1.4,0,2.9,0,4.4,0
			c-0.7-1.8-2.4-1.4-3.6-2.2c0-0.6,0.1-1.1,0.1-1.8c-1.9,1.1-3.9,1.3-5,3.1c-0.2,0.3-0.7,0.5-1.1,0.5c-1.7,0-3.6,0.4-5-0.2
			c-2.5-1.1-5-1-7.5-1.1c-3.4-0.1-6-1.2-8.4-3.4c-0.4-0.4-1-0.6-1.6-1c-0.1,1.1-0.1,1.8-0.2,2.7c-0.8,0-1.6,0.2-2.3,0
			c-3.9-1.1-7.8-1.2-11.8-0.6c-0.7,0.1-1.4,0.2-2.1,0.3c-3.1,0.6-5.3,3.6-8.8,3.3c-0.1,0-0.2,0.1-0.2,0.1c-0.9,1-2.2,1.2-3.4,1.6
			c-1.2,0.5-2.5,1.2-3.4,2.1c-0.9,1-2,1.3-3.1,1.5c-0.7,0.1-1.4,0.2-1.9,0.2c-0.3,1-0.4,1.8-0.8,2.4c-0.3,0.3-1.1,0.3-1.7,0.4
			c0-0.5-0.1-1-0.1-1.5c0-0.2,0.1-0.4,0.2-0.5c-0.9-0.4-1.7-0.7-2.5-1c-0.3,0.2-0.6,0.3-0.7,0.5c-1.4,1.9-3,2.3-5.2,1.5
			c-1.3-0.5-2.7-0.6-4-0.7c-1.4-0.1-2.7,0-3.9-0.7c-0.8-0.5-1.7-0.3-2.3,0.9c1,0.6,2,1.1,3.2,1.8c-0.9,0.3-1.4,0.5-2.1,0.7
			c1,1,1.6,2,0.7,2.9c-1.2,0.3-2.3,0.5-3.3,0.7c-0.5,0.1-1.1,0-1.6-0.2c-1.1-0.4-2.3-0.9-3.2-1.5c-4.2-2.9-9-3-13.8-3
			c-1,0-2,0.4-2.2,1.5c-0.3,1.7-1.3,2.6-2.7,3.4c-0.7,0.4-1.5,0.7-1.3,2.1c2.5-0.3,4.5-2.9,7.3-1.9c0.2,0.5,0.4,1,0.6,1.5
			c1.8-0.2,3.8-1.8,5.1,0.8c-1.8,0.8-3.4,1.5-5.5,2.4c0.7,0.4,1.1,0.9,1.5,0.9c0.8,0,1.6-0.1,2.4-0.3c2-0.4,3.9,0.6,5.9,0
			c0.1,0,0.3,0.1,0.4,0.2c1.6,0.9,3.3,1.8,4.3,3.8c-1.2,0.9-2.4,1.8-3.7,2.7c0.2,0.5,0.5,0.9,0.7,1.5c-1,0.7-1.9,1.4-1.8,3.1
			c1.4-0.9,2.5-1.7,3.8-2.7c0.6,0.6,1.2,1.3,1.8,2c-2.5,1.6-2.5,1.6-5.1,1.4c-0.5,0-1.1,0.2-1.6,0.3c-0.8,0.1-1.6,0.3-2.3,0.4
			c-1.7,0.2-3.5,0.3-5.2,0.5c-0.2,0-0.4,0.2-0.6,0.4c0.2,0.7,0.4,1.3,0.7,2.3c-1.4,0.2-2.7,0.4-3.9,0.5
			C19.7-193.2,18-193.1,17-191.3c-0.5,0.1-0.9,0.1-1.4,0.2c0.1,0.2,0.1,0.3,0.2,0.5C16.2-190.9,16.6-191.1,17-191.3z M239.4,95
			c2,0.7,3.1-0.3,4.3-0.7c2.7-1,5.3-2.1,8.1-2.9c2.5-0.7,5.2-1,7.7-1.6c1.1-0.3,2.8-0.4,2.8-1.8c0-1.2-1.1-2.4-1.7-3.5
			c-0.1-0.3-0.5-0.4-0.8-0.5c-1.7-0.6-2.9-1.8-4.2-3.1c-1.6-1.7-1.9-1.7-4-0.3c-0.3,0.2-0.5,0.4-0.8,0.4c-1.8,0.3-2.8,1.8-3.3,3.2
			c-0.6,1.8-1.6,3.1-2.8,4.4c-1.3,1.5-2.7,3-4,4.5C240.5,93.7,240.1,94.2,239.4,95z M209.8,97.7c0.1,0.1,0.1,0.3,0.2,0.4
			c0.6-0.1,1.2-0.1,1.7-0.3c3.2-1.1,6.4-2.4,9.6-3.4c2.6-0.9,5.4-1.5,8.1-2.2c2.8-0.7,5.7-1.1,8.3-2.1c3.2-1.2,6.4-2.7,8.3-5.8
			c0.4-0.6,0.6-1.3,0.5-2c0-0.3-1-1-1.1-0.9c-1.4,1-3.3,0.9-4.6,2.3c-0.9,1-2.1,2-3.4,2.5c-4.4,1.7-8.9,3-13.4,4.6
			c-4.6,1.7-9.2,3.3-13.4,5.8C210.3,97,210,97.4,209.8,97.7z M49.3-55.4c-3.9,2-5.5,5.5-3.8,8.3c2.5-1,2.9-3.5,4.1-5.5
			C50.1-53.5,50.2-54.5,49.3-55.4z M17.3-168.7c-1.2-0.8-2-1.4-2.9-1.8c-0.3-0.1-0.8,0.1-1.5,0.3c1,1.1,1.7,1.9,2.6,2.9
			C16.1-167.8,16.7-168.2,17.3-168.7z M81.3,24.4c0.7-0.6,1.4-1.1,2.1-1.6c0-0.2-0.1-0.4-0.1-0.6c-0.7-0.2-1.6-0.8-2-0.6
			C80.3,22.3,80.5,23.2,81.3,24.4z M84.5-235.2c0.6,0.3,0.8,0.5,1.1,0.5c0.7,0.2,1.6,0.6,2.1-0.3c0.1-0.2,0-0.8-0.3-1
			c-0.7-0.7-1.4-0.4-2.1,0C85.1-235.9,84.9-235.6,84.5-235.2z M80-230.3c-0.1-1.2-0.4-1.7-1.3-1.5c-0.9,0.2-1.7,0.6-2.6,0.9
			c0,0.1,0,0.3,0,0.4C77.3-230.5,78.6-230.4,80-230.3z M10.9-165.6c-2.5,0.5-2.5,0.5-1.7,2.2C9.7-164.1,10.2-164.7,10.9-165.6z
			 M22.4,420c-0.6-0.2-0.9-0.5-1.2-0.5c-0.3,0-0.7,0.4-0.7,0.7c0,0.3,0.4,0.6,0.6,0.8C21.3,420.8,21.6,420.6,22.4,420z M104.2,292.5
			c0.4,0.4,0.6,0.9,0.8,0.9c0.2,0,0.7-0.4,0.7-0.6c0-0.3-0.3-0.8-0.6-0.9C105,291.8,104.6,292.2,104.2,292.5z M189.5,163.7
			c0.3-0.4,0.7-0.7,0.7-0.8c-0.2-0.3-0.5-0.6-0.9-0.8c-0.1,0-0.6,0.4-0.6,0.5C188.9,163,189.2,163.3,189.5,163.7z M264.4,84.7
			c-0.6-0.2-1-0.4-1.3-0.4c-0.1,0-0.3,0.4-0.4,0.6c0.3,0.1,0.5,0.4,0.8,0.4C263.7,85.3,263.9,85.1,264.4,84.7z M81.9-233.9
			c-0.1-0.2-0.2-0.4-0.2-0.5c-0.8-0.1-1.2,0.3-1.5,1.6C80.9-233.3,81.4-233.6,81.9-233.9z M109.3,45.2c-0.5-0.3-0.7-0.6-1-0.7
			c-0.1,0-0.4,0.3-0.4,0.4c0.2,0.3,0.4,0.6,0.6,0.8C108.5,45.8,108.9,45.5,109.3,45.2z M147.2-228.7c0-0.1,0-0.3,0-0.4
			c-0.4,0-0.8,0-1.3-0.1c0,0.2,0,0.3,0,0.5C146.4-228.7,146.8-228.7,147.2-228.7z M139.9-233.8c0-0.1,0-0.2,0-0.4
			c-0.5,0.1-1,0.1-1.6,0.2c0,0.1,0,0.3,0.1,0.4C138.8-233.6,139.3-233.7,139.9-233.8z"/>
		<path d="M115.2,486.8c-0.1-2.4-0.3-4.8-0.2-7.2c0-2,0.3-4,0.5-5.9c0.3-1.9,0.3-1.9-0.8-3.5c-0.6,0.6-1,1.2-1.6,1.7
			c-1.2,1.2-2.3,1-3-0.6c-1.4-3.2-2.7-6.4-4.1-9.7c-0.5-1.1-0.9-1.4-2-0.8c-2.5,1.5-5.3,1.7-8.1,1.9c-2,0.1-3.7,0.7-5.3,1.9
			c-4,3.1-8.1,6-12.1,9c-1.3,1-2.4,2.1-3.5,3.2c-1.4,1.4-2.7,2.9-4.1,4.4c-1.6,1.6-3.4,2.7-5.9,2.7c-1.8,0-3.6,0.6-5.4,0.7
			c-4.7,0.4-9.2-1-13.7-1.7c-3.4-0.5-5.4-2.3-6.9-5.1c-1.6-3-3.4-5.9-5.1-8.9c-0.5-1-1-2-0.6-3.5c2.3,0.2,4.6,0.4,7,0.7
			c0.4-0.8,1-1.6,2.3-1.2c0.7,0.2,1.4,0.2,2.1,0.1c4.5-0.3,9.1-0.2,13.6-0.9c8-1.2,16-2,24-3c1.9-0.2,3.7-0.8,5.6-1.2
			c1.6-0.3,2.8-1.4,4-2.5c0.6-0.6,1.3-1.2,1.9-1.8c2.1-2.5,5.1-3.8,7.7-5.6c3.3-2.2,6.4-4.8,9.5-7.3c0.8-0.6,1.4-1.6,2-2.4
			c1.9-2.7,4.3-4.6,7.5-5.7c0.7-0.2,1.4-0.7,1.9-1.3c1.9-2.2,3.9-4.5,4.8-7.4c0.2-0.6,0.6-1.1,0.9-1.7c0.3-0.4,0.8-0.7,0.9-1.1
			c0.2-2.5,2.3-3.5,3.9-4.8c1.7-1.3,3.5-2.5,5.7-2.9c0.7-0.1,1.6-0.5,2.1-1.1c1.6-1.8,3.3-3.5,4.5-5.5c1.1-1.8,0.2-3.7-0.4-5.6
			c-1.7,0.8-3.2,1.5-4.7,2.1c-0.5,0.2-1.1,0.4-1.6,0.4c-4.3-0.4-8.3,1.3-12.4,2.3c-2.3,0.5-3.7,2.5-4.8,4.4c-0.8,1.3-1.4,2.6-2.3,4
			c-0.9-0.7-1.5-1.3-2.2-1.8c-1.9-1.6-4.4-1.7-6.6-2.3c-1-0.3-1.7,0.3-2.3,0.9c-2.1,2.4-4.8,3.9-7.8,4.8c-1.3,0.4-2.4,1.2-3.6,1.9
			c-1.2,0.7-2.2,1.5-3.4,2.3c-1.3,0.9-2.6,1-4,0.2c-2.2-1.1-5.4-0.3-6.9,1.6c-1.4,1.7-1.6,1.8-3.6,0.8c-1.1-0.6-2-0.5-2.8,0.4
			c-1.6,1.7-3.2,3.3-4.7,5c-0.9,0.9-1.7,1.9-2.6,2.8c-2,1.9-4.6,2.2-7.1,2.5c-1.7,0.3-3.5,0.3-5.1,1.1c-0.6,0.3-1.4,0.3-2.1,0.3
			c-1.8-0.1-3.7-0.3-5.5-0.3c-2-0.1-3.9-0.4-5.8-1.2c-0.9-0.4-2-0.6-3-0.7c-2.2-0.1-4.1-0.7-5.9-1.8c-0.7-0.4-1.4-1-1.9-1.7
			c-1.4-2-1.4-2.1-3.7-0.9c-0.3-0.2-0.5-0.6-0.8-0.7c-1.9-0.6-3.4-1.7-4.7-3.3c-0.7-1-1.8-0.8-2.7,0.2c-0.7,0.8-1.4,1.8-2,2.7
			c-1.1,1.4-2.4,2.1-4.2,1.3c-0.9-0.4-1.6-0.2-2.5,0.2c-0.9,0.4-2,0.7-2.9,0.6c-3.2-0.4-6.3-0.7-9.4,0.6c-0.8,0.3-1.9,0.6-2.4-0.4
			c-0.6-1.1-0.8-2.4-1.2-3.6c0-0.1,0-0.2,0.1-0.2c2.5-1.6,3-5.5,6.7-5.8c0.6,0,1.2-0.1,1.9-0.2c0.7-0.1,1.6,0.1,2.1-0.3
			c1.4-0.9,2.4-0.7,3.7,0.2c1,0.6,2,1.3,3.4,1c0.5-0.1,1.2,0.4,1.5,0.8c0.6,0.6,0.7,1.8,1.8,1.7c1.3-0.1,2.7-0.3,3.7-1.5
			c0.7-0.7,1.5-1.3,2.4-1.8c1.6-0.8,2.3-1.9,1.8-3.7c-0.4-1.4-0.2-2.5,0.4-3.7c0.2-0.5,0.5-1,0.5-1.6c0.2-3.6,1.5-6.9,2.5-10.2
			c0.2-0.8,0.3-1.8,0.1-2.5c-0.7-2.4-0.9-4.8-0.3-7.3c0.3-1-0.3-1.5-1.2-1.6c-0.5-0.1-1.1,0-1.6,0c-0.8-1.5-0.2-2.6,0.5-3.7
			c0.8-1.4,1.6-2.7,1.6-4.4c0-0.4,0.2-1,0.5-1.3c2-2.2,2.8-5,3.7-7.7c0.5-1.5,1.3-2.7,2.4-3.8c2.5-2.6,4.9-5.2,7.4-7.8
			c0.3-0.3,0.6-0.6,0.9-0.8c3.4-1.9,2.4-1.8,3.7-5.1c0.7,0.2,1.4,0.4,2.3,0.6c1.1-1.4,2.3-2.7,4.2-3c1.4-1.9,2.9-3.8,4.3-5.7
			c0.4-0.6,0.5-1.3,0.8-2c0.5,0,0.9-0.1,1.2-0.1c1.3,0.2,1.8-0.6,2.1-1.8c0.4-1.3,0.8-2.6,1.4-3.8c0.6-1.1,1.4-2.1,2.1-3.1
			c0.4-0.5,0.8-1,1.1-1.6c0.4-1,1.1-1.5,2.1-1.8c2-0.6,3.5-1.7,4.3-3.8c0.6-1.6,1.9-2.7,3.1-3.9c1.9-2,4-3.7,5-6.6
			c0.4-1.1,2-2.1,3.2-2.6c1.4-0.6,2.3-1.3,2.6-2.8c0.2-1.4,1-2.4,2.3-3.1c1.5-0.9,2.7-2.2,4.5-2.7c0.1,0,0.3-0.1,0.4-0.3
			c1.6-1.8,3.2-3.5,4.7-5.4c0.6-0.7,1.1-1.3,2.1-1.5c1.7-0.4,2.9-1.4,3.9-2.9c1-1.7,2.4-3.2,3.6-4.8c0.4-0.6,0.7-1.3,0.8-1.9
			c0.1-1.2,0.3-2.2,1.7-2.6c1-0.3,1.3-1.2,1-2.1c-0.5-1.8,0.3-3.2,1.5-4.3c2.2-2.1,3.7-4.5,5.2-7.1c1.3-2.3,2.9-4.6,5.5-5.8
			c1-0.5,1.5-1.5,2.1-2.5c1.2-2.2,2.6-4.5,5.5-5.2c1.3-0.4,2.8-1.1,3.6-2.2c1.8-2.1,3.9-4.3,4-7.4c0-0.2,0.1-0.5,0.3-0.7
			c1.9-1.9,2.9-4.6,5.2-6.2c1.1-0.8,1.9-2,2.8-3c0.3-0.3,0.4-0.7,0.7-1c2.5-2.6,5-5.2,7.4-7.7c0.1-0.1,0.1-0.1,0.2-0.2
			c2.6-3.2,5.1-6.3,7.6-9.5c0.1-0.2,0.2-0.4,0.4-0.6c3.2-2.9,4.7-7,7.3-10.3c0.9-1.1,1.8-2.2,2.7-3.3c0.4-0.5,0.9-1,1.1-1.5
			c0.9-2,1.7-3.9,3.4-5.4c0.2-0.1,0.3-0.4,0.3-0.6c0.6-4.7,3.9-7.9,6.6-11.4c2.1-2.8,5.1-5.1,7.7-7.5c1.8-1.6,3.6-3.2,5.5-4.6
			c3-2,6.1-3.8,9.1-5.7c2-1.3,4-2.6,5.9-4c4.7-3.5,9.3-7,13.9-10.6c6-4.8,11.6-10.1,16.6-15.9c2.7-3.1,5.6-6.1,7.5-9.9
			c0.2-0.4,0.5-0.8,0.6-1.3c0.3-1.1-0.3-2-1.4-2c-1,0-2.1,0.3-2.9,0.8c-5.2,3.3-9.9,7.2-14.7,11c-2.5,2-5.5,3.5-8.3,5.2
			c-0.5,0.3-1.1,0.4-1.5,0.8c-1.4,1.3-3.2,1.7-5,2.2c-1.9,0.6-3-0.3-2.9-2.2c0.1-2.4,1-4.4,2.4-6.4c3-4.1,6.5-7.7,10.3-11
			c1.9-1.7,3.6-3.2,6.1-4.1c2.1-0.8,3-3.1,2.2-5.2c-0.2-0.6-0.3-1.4-0.2-2.1c0.1-0.9,0.5-1.7,0.8-2.5c0.3-0.9,0.6-1.8-0.2-2.5
			c-0.8-0.7-1.5,0-2.2,0.3c-1.2,0.5-2.6,0.9-3.7,1.6c-1.2,0.7-2.2,1.5-3.2,2.4c-1.6,1.4-3.1,2.7-4.5,4.2c-1.2,1.2-2.3,2.4-3.3,3.8
			c-2.3,3.3-4.7,6.4-7.4,9.4c-1.2,1.3-2.3,2.9-1.4,5c0.4,0.9,0,1.6-0.9,1.8c-1.6,0.3-2,1.4-2.1,2.8c-0.1,0.7-0.5,1.4-0.9,1.9
			c-2.5,3.1-5.1,6.1-7.7,9.1c-1,1.1-2.3,1.9-3.5,2.8c-0.5,0.4-1,1-1.5,1.4c-0.9,0.8-1.8,0.7-2.3-0.4c-0.5-1.2-0.4-2.3,0.3-3.4
			c1.6-2.8,3-5.7,4.8-8.3c4.6-6.6,9.2-13.3,14.1-19.7c4.8-6.2,10-12,15.1-18c2.8-3.3,5.7-6.5,8.5-9.7c0.8-1,1.8-1.4,3.1-1.6
			c2.1-0.4,4.2-1,6.2-1.7c3.4-1.1,6.8-2.3,10.2-3.4c2.4-0.8,4.8-1.7,7.2-2.6c1.3-0.4,2.3-1,3-2.2c0.7-1,1.5-1,2.7-0.7
			c3.9,0.9,5.5,4.1,7.7,6.7c0.8,0.9,1.4,1.9,2.2,2.8c0.9-0.4,1.6-0.7,2.6-1.2c1.4,1.8,2.5,3.8,1.9,6.1c-0.6,2.5,0.4,4.2,2.1,5.7
			c0,6.1,0,12.2,0,18.2c-1.6,3.1-3.2,9.4-2.7,11.3c1-2.3,1.8-4.4,2.7-6.5c0,118.1,0,236.2,0,354.2c-11.5,0-23,0-34.6,0
			c-1.8-2-2.7-4.9-5.6-6.1c0.4,2.2,1.5,4.1,2.2,6.1c-2.9,0-5.8,0-8.6,0c0.1-1.3,0.2-2.5,0.3-3.8c0.1-1,0.1-2-0.9-2.5
			c-1.5-0.8-1.4-2-1-3.3c0.3-1,0.7-1.9,1.2-2.8c0.8-1.3,0.8-1.5-0.3-2.7c-1.2-1.3-2.8-1.4-4.4-1.5c-0.9-0.1-1.9-0.2-2.8-0.4
			c-1.7-0.5-3.4-0.9-4.7-2.2c-0.3-0.3-0.9-0.4-1.3-0.4c-2.2-0.1-4-1.1-5.4-2.7c-0.7-0.8-1.6-1.3-2.8-1c-1.1,0.3-2-0.1-2.9-0.8
			c-2-1.5-3.9-0.9-4.3,1.5c-0.4,3.1-0.9,6.3-0.5,9.3c0.7,4.5,1,8.9,0.3,13.3c-6.7,0-13.4,0-20.2,0c0.2-2.8,0.4-5.6,0.8-8.3
			c0.6-3.7,0.1-7.1-2.1-10.2c-0.5-0.7-1.5-1.3-2.3-1.4c-1.1-0.1-1.6,0.9-1.9,1.8c-0.3,0.7-0.4,1.6-0.7,2.3c-0.3,0.6-0.9,1.1-1.3,1.7
			c-0.2-0.1-0.4-0.1-0.6-0.2c-0.2-0.8-0.4-1.6-0.5-2.4c-0.1-0.9-0.1-1.8-0.3-2.6c-0.1-0.5-0.6-1.1-1-1.1c-0.4-0.1-1.1,0.4-1.3,0.8
			c-0.4,0.8-0.7,1.6-0.8,2.5c-0.4,3.8-2.3,7-4.2,10c-1.4,2.3-2.5,4.7-3.9,7c-2.6,0-5.1,0-7.7,0c-0.8-1.5-1.6-2.9-1.6-4.7
			c0-0.5-0.4-1.2-0.8-1.3c-0.4-0.1-1.1,0.2-1.4,0.5c-1.3,1.8-2.6,3.6-3.9,5.4c-5.9,0-11.8,0-17.8,0c-0.3-0.7-0.5-1.5-0.9-2.2
			c-0.6-1-1.3-1-2.1-0.3c-0.7,0.6-1.4,1.4-0.8,2.4C124.5,486.8,119.9,486.8,115.2,486.8z M272.2,264.6c-0.1-1.4-1-2.1-2.2-1.5
			c-0.7,0.4-1.3,1.1-2,1.7c-0.7,0.6-1.4,1.3-2.1,1.9c-1,0.8-2.1,1.4-3.1,2.2c-1,0.8-1.7,2.1-2.8,2.6c-3,1.3-5.1,3.7-7.4,5.9
			c-1.2,1.2-2.4,2.5-3.6,3.8c-1.3,1.4-2.6,2.8-4.1,4c-3.1,2.6-6.2,5-9.3,7.5c-0.6,0.5-1,1.2-1.5,1.9c-0.4,0.6-1.1,1.4-0.3,2.1
			c0.7,0.7,1.6,0.5,2.4,0c0.2-0.1,0.4-0.3,0.6-0.4c1.4-0.7,2.9-1.3,4.3-2c0.7-0.3,1.5-0.6,2.1-1.1c1.2-1.1,2.3-2.4,3.5-3.6
			c0.7-0.7,1.3-1.4,2.1-2c1.3-1.1,2.6-2.1,3.8-3.2c0.8-0.7,1.5-1.8,2.4-2.3c2.5-1.3,4-3.3,5.4-5.5c0.4-0.7,0.8-1.4,1.3-2
			c0.9-1.2,2-2.2,3.4-2.9c1.8-0.9,3.6-2.1,5.1-3.5C271.2,267.2,271.6,265.8,272.2,264.6z M174.3,340.1c0.1-1.2-0.3-1.8-1.5-1.5
			c-0.9,0.2-1.8,0.7-2.6,1.2c-2.3,1.3-4.9,2.1-7,3.9c-0.3,0.2-0.7,0.3-1.1,0.3c-1.4,0.1-2.2,1-3,2.1c-1.4,1.9-2.6,4-5.2,4.7
			c-0.8,0.2-1.4,1.2-1.9,1.9c-0.2,0.3-0.1,1,0.1,1.3c0.2,0.3,0.9,0.4,1.3,0.3c0.7-0.3,1.4-0.8,2-1.2c1.8-1,3.6-2,5.3-3
			c0.1-0.1,0.3-0.1,0.5,0c1.7,0.5,2.8-0.5,3.6-1.7c1.1-1.5,2.4-2.5,4.2-3c0.8-0.2,1.5-0.6,2.1-1.1
			C172.7,343.4,174,342.1,174.3,340.1z M214.2,311.8c-0.9,1.2-1.3,1.8-1.7,2.3c0,0,0.5,0.6,0.8,0.6c0.8,0.1,1.6-0.8,1.5-1.4
			C214.7,312.9,214.5,312.6,214.2,311.8z M219.2,308.9c-0.8-0.5-1.1-0.9-1.6-1c-0.7-0.1-1.3,0.2-1.2,1c0.1,0.4,0.7,0.8,1.2,0.8
			C217.9,309.7,218.4,309.3,219.2,308.9z"/>
		<path class="st0" d="M206.4,486.8c0.7-4.5,0.4-8.8-0.3-13.3c-0.5-3,0.1-6.2,0.5-9.3c0.3-2.4,2.3-3,4.3-1.5
			c0.9,0.7,1.7,1.1,2.9,0.8c1.1-0.3,2,0.2,2.8,1c1.5,1.6,3.2,2.6,5.4,2.7c0.5,0,1,0.1,1.3,0.4c1.3,1.3,3.1,1.6,4.7,2.2
			c0.9,0.3,1.8,0.4,2.8,0.4c1.6,0.1,3.2,0.2,4.4,1.5c1,1.2,1.1,1.4,0.3,2.7c-0.5,0.9-0.9,1.8-1.2,2.8c-0.5,1.3-0.5,2.5,1,3.3
			c0.9,0.5,1,1.5,0.9,2.5c-0.1,1.3-0.2,2.5-0.3,3.8C226,486.8,216.2,486.8,206.4,486.8z M230.2,474.7c-0.8,1.9-0.8,1.9,0.4,2.9
			C230.5,476.7,230.4,475.9,230.2,474.7z"/>
		<path class="st0" d="M166.1,486.8c1.4-2.3,2.5-4.7,3.9-7c1.9-3.1,3.8-6.3,4.2-10c0.1-0.9,0.4-1.7,0.8-2.5c0.2-0.4,0.9-0.9,1.3-0.8
			c0.4,0.1,0.9,0.7,1,1.1c0.2,0.8,0.2,1.7,0.3,2.6c0.1,0.8,0.3,1.6,0.5,2.4c0.2,0.1,0.4,0.1,0.6,0.2c0.4-0.6,1-1.1,1.3-1.7
			c0.3-0.7,0.4-1.5,0.7-2.3c0.3-0.9,0.8-2,1.9-1.8c0.8,0.1,1.9,0.7,2.3,1.4c2.1,3.1,2.6,6.5,2.1,10.2c-0.4,2.7-0.5,5.5-0.8,8.3
			C179.6,486.8,172.8,486.8,166.1,486.8z"/>
		<path class="st0" d="M150.8,486.8c1.3-1.8,2.5-3.6,3.9-5.4c0.3-0.4,1-0.7,1.4-0.5c0.4,0.1,0.8,0.8,0.8,1.3c0,1.8,0.8,3.2,1.6,4.7
			C155.9,486.8,153.3,486.8,150.8,486.8z"/>
		<path class="st0" d="M244.4,486.8c-0.7-2-1.8-3.9-2.2-6.1c2.8,1.2,3.7,4.1,5.6,6.1C246.6,486.8,245.5,486.8,244.4,486.8z"/>
		<path class="st0" d="M282.3,132.5c-0.9,2.1-1.7,4.2-2.7,6.5c-0.5-1.9,1.1-8.2,2.7-11.3C282.3,129.3,282.3,130.9,282.3,132.5z"/>
		<path class="st0" d="M129.2,486.8c-0.6-1.1,0.1-1.8,0.8-2.4c0.8-0.8,1.6-0.7,2.1,0.3c0.4,0.7,0.6,1.4,0.9,2.2
			C131.7,486.8,130.4,486.8,129.2,486.8z"/>
		<path d="M17.1-191.3c0.9-1.8,2.6-1.9,4.3-2c1.2-0.1,2.5-0.3,3.9-0.5c-0.3-1-0.5-1.7-0.7-2.3c0.2-0.1,0.4-0.3,0.6-0.4
			c1.7-0.2,3.5-0.3,5.2-0.5c0.8-0.1,1.6-0.3,2.3-0.4c0.5-0.1,1.1-0.3,1.6-0.3c2.6,0.2,2.6,0.2,5.1-1.4c-0.6-0.7-1.2-1.3-1.8-2
			c-1.3,0.9-2.5,1.7-3.8,2.7c-0.1-1.7,0.8-2.4,1.8-3.1c-0.3-0.6-0.5-1-0.7-1.5c1.3-0.9,2.5-1.8,3.7-2.7c-1-2-2.7-2.9-4.3-3.8
			c-0.1-0.1-0.3-0.2-0.4-0.2c-2,0.6-3.9-0.3-5.9,0c-0.8,0.1-1.6,0.3-2.4,0.3c-0.4,0-0.8-0.5-1.5-0.9c2.1-0.9,3.7-1.7,5.5-2.4
			c-1.2-2.6-3.2-1-5.1-0.8c-0.2-0.5-0.4-1-0.6-1.5c-2.8-1-4.8,1.6-7.3,1.9c-0.2-1.3,0.6-1.7,1.3-2.1c1.4-0.8,2.4-1.7,2.7-3.4
			c0.2-1.1,1.1-1.5,2.2-1.5c4.8,0,9.6,0.1,13.8,3c1,0.7,2.1,1.1,3.2,1.5c0.5,0.2,1.1,0.2,1.6,0.2c1.1-0.1,2.1-0.4,3.3-0.7
			c0.9-1,0.3-2-0.7-2.9c0.7-0.2,1.2-0.4,2.1-0.7c-1.2-0.7-2.2-1.2-3.2-1.8c0.6-1.3,1.5-1.4,2.3-0.9c1.3,0.7,2.6,0.7,3.9,0.7
			c1.3,0.1,2.7,0.2,4,0.7c2.2,0.8,3.9,0.3,5.2-1.5c0.1-0.2,0.4-0.3,0.7-0.5c0.7,0.3,1.5,0.6,2.5,1c-0.1,0.2-0.2,0.4-0.2,0.5
			c0,0.5,0.1,1,0.1,1.5c0.6-0.1,1.4,0,1.7-0.4c0.4-0.6,0.5-1.4,0.8-2.4c0.5-0.1,1.2-0.1,1.9-0.2c1.2-0.2,2.2-0.5,3.1-1.5
			c0.9-1,2.1-1.7,3.4-2.1c1.2-0.5,2.5-0.6,3.4-1.6c0.1-0.1,0.1-0.1,0.2-0.1c3.5,0.3,5.7-2.7,8.8-3.3c0.7-0.1,1.4-0.2,2.1-0.3
			c4-0.6,7.9-0.5,11.8,0.6c0.7,0.2,1.5,0,2.3,0c0.1-1,0.1-1.7,0.2-2.7c0.7,0.4,1.2,0.6,1.6,1c2.3,2.3,5,3.4,8.4,3.4
			c2.4,0.1,5,0,7.5,1.1c1.4,0.6,3.3,0.2,5,0.2c0.4,0,0.9-0.2,1.1-0.5c1.2-1.8,3.2-2,5-3.1c0,0.7-0.1,1.3-0.1,1.8
			c1.2,0.8,2.9,0.3,3.6,2.2c-1.5,0-3,0-4.4,0c-0.1,0.5-0.2,0.8-0.1,0.9c1.4,0.9,2.6,2.5,4.8,1.8c0.8-0.3,1.7,0,2.7,0
			c0-0.7,0-1.2,0-1.9c1.1,0.5,2,1.2,3.1,1.3c1,0.1,2.1-0.3,3.7-0.6c-0.6,0.8-0.9,1.2-1.3,1.7c0.9,1.6,2.6,1.4,3.7,1.7
			c0.8,0.9,1.4,2.1,2.2,2.4c1.1,0.4,2.4,0,3.9-0.1c-0.7-1.2-1.5-0.8-2.3-0.9c-0.5,0-1.2-0.3-1.3-0.6c-0.2-0.9,0.6-0.9,1.2-1
			c0.6-0.1,1.1-0.3,1.7-0.4c0-0.2,0.1-0.3,0.1-0.5c-0.5-0.3-1-0.6-1.5-0.9c-0.5-0.3-1.1-0.5-2.2-1c1.2-0.3,1.9-0.5,2.2-0.6
			c0.8-1.1,1.3-2,2-3c-0.3-0.2-0.8-0.5-1.3-0.8c-2-0.8-4-1.5-6-2.3c-0.3-0.1-0.6-0.4-1.3-0.9c5.8,0.5,10.7,1.8,14.4,5.7
			c4.7,5,10.8,7.9,16.8,10.8c3.9,1.9,8,3.7,12,5.5c3.5,1.6,6.8,3.6,9.6,6.2c3,2.8,4.9,6.3,6.5,9.9c0.1,0.3,0,0.6,0,1
			c-1.2,0.6-1.8-0.4-2.4-1c-0.8-0.8-1.6-1.6-2.4-2.3c-0.3-0.3-0.9-0.3-1.5-0.2c1.3,2.4,2.8,4.6,5.8,5.1c1.5,0.2,2.5,0.8,2.7,2.5
			c0.2,1.1,0.7,2.1,1.1,3.2c0.3,0.8,0.8,1.4,1.6,2c1.1,0.7,2,1.8,2.8,2.9c1.2,1.5,2.2,3.1,3.4,4.7c-0.7,0.7-1.2,0.6-1.8,0
			c-1.3-1.6-2.7-3.2-4.1-4.8c-1.1,1.5-0.4,2.9,0.2,4.3c-0.6,0-1.1-0.1-1.7-0.1c0.3,1.3,0.9,2.2,1.9,2.7c0.4,0.2,1,0,1.5-0.1
			c1.5,2.3,3,4.7,4.5,7c0.7,1,1.3,2,0.6,3.4c0.3-0.2,0.7-0.4,1-0.6c1.7,1.4,2.1,2.4,2,4.6c-0.7-1-1.4-1.8-2.1-2.7
			c-0.9,1-0.5,1.9-0.2,2.7c0.5,1.1,1,2.2,1.8,3.1c1.4,1.6,1.7,3.5,2.3,5.5c-0.6-0.4-1.2-0.9-1.9-1.4c-1.1,1.4-0.7,2.9-0.3,4.3
			c0.6,1.8,1.1,3.6,1.7,5.4c0,0.2,0.1,0.4,0.1,0.5c-1.8,2.6,0.2,5.2-0.1,7.8c0,0.3,0,0.6-0.1,1.2c-0.5-0.4-0.9-0.7-1.4-1.1
			c-0.6,0.9-0.4,1.6,0.1,2.3c1.2,1.5,1,2.9,0.2,4.5c-0.5,1.1-1.2,2.3-0.8,3.7c0.1,0.4-0.2,0.9-0.4,1.3c-1.1,2-1.7,4.1-1.8,6.4
			c0,1.4-0.4,2.8-0.7,4.2c-0.7,2.9-1.4,5.7-2.2,8.5c-0.2,0.6-0.6,1.1-0.9,1.6c-0.8,1.2-0.3,2.2,1.2,2.2c1.2,0,2.4-0.1,3.6,0
			c4.7,0.4,8.5,4.3,8.8,8.9c0.1,1.3,0,2.6-0.3,3.8c-1.2,4.7-2,9.4-2.1,14.2c-0.1,3-0.8,5.8-2.1,8.6c-1.8,4-3.4,8.1-5,12.2
			c-1,2.6-2.2,4.9-4,7.1c-0.9,1.1-1.5,2.4-2.5,3.5c-1.2,1.5-2.5,2.9-3.9,4.1c-0.9,0.8-1.2,1.4-0.7,2.4c0.4,0.9,0.6,1.9-0.1,2.7
			c-0.2,0.3-0.6,0.4-1,0.6c-1-1.3-0.9-2.8-1.2-4.2c-0.3-1.6-0.5-1.8-2.7-1.8c-0.1,2-0.3,4.1-0.2,6.1c0.1,2.9,0.6,5.9,0.8,8.8
			c0.1,2.2,0.5,4.2,1.2,6.3c0.5,1.7,0.5,3.6,0.5,5.5c0,1.9,0.2,3.6,0.9,5.4c0.6,1.5,0.9,3.2,1.3,5c0.8-0.1,1.6-0.2,2.3-0.3
			c1.5,2.9,1,5-1.8,6.4c-1.8,0.9-3.7,1.6-5.5,2.4c-1.1,0.5-2.3,1-2.6,2.5c-0.2,1.1-1.2,2-0.5,3.4c0.3,0.6,0.1,1.5,0.1,2.5
			c-1.1-0.4-1.9-0.7-3.3-1.2c0.5,1,0.7,1.4,1,1.9c0.9,1.4,0.9,1.7-0.2,2.9c-1.3,1.4-1.3,1.4-0.2,3c0.7,1,0.6,1.8-0.4,2.5
			c-0.9,0.7-1.7,0.5-2.5-0.5c-0.4-0.5-0.7-1-1.2-1.8c-0.7,1.1-1.2,1.8-1.8,2.7c-0.4-0.3-0.8-0.5-1-0.8c-1.2-1.3-2-1.6-3.5-0.7
			c-2.7,1.5-5.5,1.5-8.5,1.6c-1.8,0.1-3.5,1.2-5.3,1.9c-0.4,0.2-0.8,0.8-1.2,0.8c-3.3,0-5.2,2.8-8.2,3.6c-1.8,0.5-3.4,2.1-5,3.2
			c-7.6,5.3-15.3,10.5-22.8,15.9c-4.3,3.1-8.4,6.6-12.5,10.1c-3.6,3-7.1,6.2-10.7,9.2c-0.2,0.1-0.4,0.2-0.8,0.3
			c-0.3-2.2,2.4-2.2,2.8-3.9c-2.4-0.3-3,2.3-4.8,3c-0.9-0.9-0.5-1.6,0.2-2.3c0.9-0.9,1.8-1.8,2.7-2.8c-1.3-1.4-1.9-2.8-1-4.5
			c0.1-0.2,0.1-0.5,0-0.7c-0.9-3.5,1.1-6,3.2-8.3c0.9-1,1.9-1.9,2.9-2.9c1.3-1.4,1.2-2.2-0.4-3c-1.3-0.7-1.5-1.5-0.9-2.7
			c0.2-0.3,0.3-0.8,0.2-1.2c-0.1-1.1-0.1-2,0.6-2.9c0.5-0.5,0.4-1.3-0.4-1.6c-0.4-0.1-1,0.3-1.3,0.6c-0.3,0.4-0.4,1-0.5,1.5
			c-1.4,0-2.7,0-4.2,0c-0.5-0.5-0.4-1,0.2-1.5c0.3-0.2,0.8-0.3,1-0.6c0.2-0.3,0.3-0.8,0.4-1.2c-0.4-0.1-1.1-0.4-1.2-0.3
			c-1.1,1.1-2.1,0.6-3.3,0.3c-0.8-0.2-1.7,0-2.7,0c0.1-1.9,1.7-2.4,2.8-3c1.2-0.7,2.6-0.8,4.3-1.2c-1.6-1.8-1.1-3.3,0.1-5.1
			c-1,0.1-1.5,0-1.9,0.3c-1.5,0.9-2.9,1.3-4.4,0.1c-0.2-0.2-0.6-0.3-0.9-0.3c-1.3,0.4-2.6,0.2-3.9,0.1c-1.6-0.1-3.3,0.4-4.9,0.6
			C90.8,26,89.9,26.1,89,26c-2.2-0.2-2.3-0.3-2.8-2.5c-0.3-1.3-0.9-2.3-1.9-3.2c-1.4-1.1-1.3-1.6-0.3-3.2c0.9-1.2,1.7-2.5,2.3-3.9
			c1.1-2.5,0.6-3.2-2.3-3.5c-0.1-0.5-0.3-1-0.2-1.5c0.1-1.7,0.4-3.5,0.5-5.2c0.1-0.9-0.2-1.5-1.2-1.4c-1.6,0.2-3.2-1-4.9-0.1
			c-0.3,0.1-1-0.3-1.3-0.7c-0.7-0.7-1.4-1.5-2.1-2.3c-1.3-1.4-2.6-2.8-3.7-4.3c-0.4-0.6-0.5-1.7-0.3-2.5c0.6-2.2,1.5-4.4,2.1-6.6
			c0.3-1.1,0.7-1.9,1.7-2.4c1.5-0.7,1.5-2,1.3-3.2c-1.6-0.3-2.9-0.6-4.3-0.9c-0.9-0.1-1.7-0.3-2.6-0.2c-1.9,0.1-3.8,0.2-5.7,0.4
			c-3.5,0.4-6.8,1-9.4,3.7c-0.5,0.5-1.4,0.9-2.1,1c-2.5,0.3-3.8-1.2-3.2-3.6c0.7-2.7,2-3.8,4.9-3.9c1.1,0,1.9-0.4,2.6-1.4
			c1.7-2.4,3.5-4.8,5.5-6.9c2.3-2.3,5-4.2,8.1-5.3c2.1-0.8,2.2-0.7,3.4-2.6c-0.5-0.2-0.9-0.5-1.4-0.7c-1.8-0.6-2.2-1.2-2-3
			c0.1-0.6,0.3-1.2,0.5-1.9c0.4-2.4,0.9-4.9,1.2-7.3c0.2-1.4-0.6-2.2-2.2-2.3c-0.9-0.1-1.7,0.2-2.6,0.3c-0.3,0-1-0.2-1-0.4
			c-0.1-0.4,0.1-0.9,0.3-1.3c0.1-0.2,0.5-0.3,0.8-0.4c1.8-1,1.8-1.6-0.2-3c-0.9,0.8-1.9,1.6-2.7,2.5c-0.8,0.9-1.5,1.8-2.2,2.7
			c-0.5,0.7-1.3,1-2.1,0.8c-1.2-0.3-2.5-0.6-3.6-1.1c-2.4-1.2-2.7-4.5-0.6-6.5c1.6-1.6,4.4-3,7.5-1.3c0.9,0.5,1.7,0.9,2.6,1.4
			c0.2-0.4,0.3-0.6,0.3-0.6c-2-4.3-1.8-8.8-0.9-13.3c0.2-1,0.2-2,0.3-3.1c0.2-3,1.1-5.7,2.1-8.5c0.7-1.9,1-3.8,1.5-5.8
			c0.1-0.6,0.1-1.5,0.5-1.7c2.3-1.6,2.1-4.1,2.5-6.4c0.3-1.7,0.4-3.5,0.9-5.2c1-3.1,1-6.3,1.2-9.5c0.1-2.4-1.3-4.4-2.9-6.1
			c-0.9-1-1.7-0.7-2.2,0.7c-0.1,0.4-0.3,0.7-0.5,1.2c-0.4-0.2-0.8-0.3-1.1-0.5c-0.9-0.8-1.7-0.4-2.2,0.4c-0.8,1.4-1.9,2.3-3.5,2.6
			c-0.9,0.2-1.5,1-1.3,2c0.3,1.6,0.8,3.2,1.1,4.8c0.4,1.9,0.5,3.7-0.2,5.6c-0.8,2.2-1.3,4.6-1.9,6.9c-0.3,1.1-0.5,2.2-0.9,3.2
			c-0.3,1-0.7,1.9-1.8,2.4c-0.5,0.2-0.8,0.7-1.2,1.2c-2.2,3.1-5.6,4.7-8.9,6.3c-0.3,0.2-0.8,0.2-1.2,0.2c-2-0.3-4-0.7-6.2-1.1
			c0.2-2.5,3.8-2.1,4.1-4.7c-0.4-0.2-0.8-0.4-1.2-0.5c-1.1-0.4-1.6-1.2-1.9-2.2c-0.4-1.4-1-2.8-1.5-4.3c-2.7,1-4.1,1.9-3.3,5.6
			c-2.2,0.5-4.4,1.1-6.6,1.6c0-0.2,0-0.6,0.1-0.9c1.7-4.2,3.8-8.1,8.1-10.3c1.2-0.6,2.3-1.4,2.6-2.9c-1.5-0.6-3.1-0.4-6.1,0.9
			c1-1.5,2.6-1.9,3.9-2.5c1.6-0.8,3.7-0.9,4.8-2c1-1,1.1-3,1.5-4.6c0.2-0.8,1.1-1.6,0.2-2.4c-0.9-0.9-2-1.7-3.4-1.3
			c-0.7,0.2-1.3,0.5-2,0.7c-0.6,0.2-1.4,0.5-1.8,0.3c-1.6-0.8-3.1,0.1-4.4,0.5c-1.6,0.5-3,0.5-4.5,0.2c-0.5-0.1-1.1-0.3-1.7-0.3
			c-1.6-0.1-2.6,0.7-3,2.4c-1.4,5.7-1,11.4-1.2,17.2c0,1.5-0.2,3-0.3,4.5c-0.2,0-0.3,0.1-0.5,0.1c-0.5-1-0.9-2-1.5-3
			c-0.5-1-1.3-1.8-1.7-2.8c-1.1-2.7-1.7-5.4-2.1-8.3c-0.6-3.9-0.3-7.7,0.1-11.5c0.7-6.3,1.6-12.6,2.5-18.9c0-0.3,0.1-0.6,0.2-0.9
			c0.7-1.6,0.7-3.1-0.4-4.4c1.6-1.8,1.6-1.8,0.8-4.1c-0.5-1.5-0.6-2.8,0.4-4.3c1.3-1.8,0.9-3.4-1-4.6c-0.9-0.6-1.1-1.2-0.9-2.2
			c0.4-1.8,0.2-3.8,2.7-4.4c-0.3-0.5-0.6-0.9-0.8-1.3c-0.2-0.4-0.6-0.9-0.5-1.3c0.5-1.6,1.1-3.1,1.7-4.6c0.1-0.4,0.4-0.7,0.6-1
			c0.4-0.8,0.5-1.5-0.2-2.2c-0.7-0.6-1.4-0.6-2.1,0.1c-0.1,0.1-0.3,0.1-0.3,0.1c0.2-1,0.4-1.9,0.6-3.1c1.2,0.5,2.3,0,3.2-1.5
			c-0.5-0.1-0.8-0.2-1-0.1c-2.4,0.9-2.7,0.7-3.7-2.1c0.7-0.3,1.4-0.7,2.1-0.9c1.1-0.3,2.1-0.7,2.8-1.7c0.2-0.3,0.6-0.7,0.9-0.6
			c1.8,0.1,2.2-1.2,3-2.9c-0.8,0.3-1.3,0.5-1.8,0.6c-0.5,0.1-1.2,0.5-1.5,0.3c-1.4-1.1-2.8-0.3-4.1,0.1c-0.7,0.2-1.3,0.5-2.1,0.9
			c0.1,1.2-0.1,2.2-1.1,3c-0.4,0.3-0.4,1.1-0.6,1.7c-2.6,0.9-3.3,1.8-3.5,5c-2.1-0.4-2.2,1.5-3.3,3c0-0.8-0.2-1.2-0.1-1.5
			c1-1.8,2.1-3.5,3.2-5.3c0.1-0.1,0.2-0.3,0.3-0.4c2.5-1.2,3.1-3.5,3.3-5.9c0.2-1.7,1.4-2.1,2.6-2.3c1.2-0.2,2-0.7,2.5-1.9
			c0.6-1.5,1.2-3,3-3.5c0.3-0.1,0.6-0.8,0.5-1.1c-0.1-0.3-0.7-0.5-1.1-0.7c-0.2-0.1-0.5-0.1-0.7,0C20.2-190.9,18.6-191.4,17.1-191.3
			L17.1-191.3z M71.4-170c-0.3-1.3-0.9-2.4-0.7-3.3c0.8-3.3,0-5.8-2.7-7.7c-0.6-2.2-2.2-2.3-3.9-1.8c-0.9,0.2-1.8,0.6-2.7,0.8
			c-0.7,0.2-1.6,0.6-2.3,0.5c-3-0.8-5.3,0.7-7.5,2.2c-2.4,1.6-4.5,3.5-7,5.1c-2.8,1.8-5.1,4.1-7,6.8c-3.2,4.7-6.4,9.4-8.4,14.8
			c-1.9,5.2-4,10.5-5.5,15.8c-1.6,5.7-1.9,11.7-1.6,17.6c0,0.8,0.3,1.6,0.6,2.9c1.1-0.7,1.9-1.2,2.7-1.7c0.7-0.5,1.3-1.2,2-1.7
			c3.4-2.3,6.7-4.5,10.1-6.7c0.4-0.3,0.8-0.6,1.3-0.7c2.4-0.7,4.8-1.3,7.2-2c3-0.9,5.9-0.5,8.7,0.3c1.3,0.4,2.5,0.8,3.5-0.6
			c0.8,1.8,2,2.9,3.7,3.5c0.5-1.1,1.1-2,1.4-3.1c0.4-1.4,2-1.1,2.8-2.1c-0.4-0.4-0.8-0.7-0.9-1.1c-0.2-0.5-0.6-1.3-0.4-1.7
			c1.1-2.5,0.1-4.5-1.3-6.4c-0.9-1.3-1-2.6-0.6-4c2.4,0,3-0.6,2-2.1c-1.1-1.6-0.8-3.2-0.2-4.5c0.6-1.2,1.3-3,3.3-2.8
			c0.6-2.4,1.6-4.5-0.3-6.7c-0.7-0.8-0.1-2.1,0.9-2.6c0.4-0.2,0.9-0.3,1.5-0.5c0-1,0.2-2,0-2.9C69.6-168.2,70-169.2,71.4-170z
			 M82.2-135.1c1.2-1.1,0.8-2.2,0.6-3.2c-0.2-1.5-0.5-3-0.5-4.4c0-1.3,1.2-2.7-0.4-3.9c-0.1-0.1,0-0.6,0.1-0.9
			c0.3-1.3-0.3-1.9-1.5-2.2c-1.8-0.4-2.4-0.3-2.9,1.1c-0.3,1-0.8,1.7-1.8,1.9c-0.4,0.1-0.8,0.5-1,0.9c-0.6,0.8-1.1,1.5-1.5,2.4
			c-0.5,1-1,2-1.2,3.1c-0.3,3.1-0.5,6.2-0.7,9.3c0,0.4,0.1,0.8,0.2,1.2c0.1,0.2,0.3,0.3,0.6,0.5c0.5-0.4,1-0.8,1.4-1.2
			c2.5,0.6,3.3,0.3,4.5-2.1c0.6-1.2,1-2.5,1.5-3.8c0.3-0.7,0.6-1.5,1.8-1.3C81.5-137,81.8-136.2,82.2-135.1z M189.5-7.7
			c1.4-2.1,2.1-4.7,2.1-7.2c0-4.5,0-8.9,0.2-13.4c0.2-3.7,0.6-7.3,0.9-10.9c0.1-0.8,0.3-1.6-0.7-2c-2.8,0.5-1.2,3.7-2.9,4.9
			c-0.4-0.8-0.7-1.5-1.1-2.3c-0.3,0.4-0.6,0.5-0.6,0.7c-0.3,2.1,0.4,4.3-0.5,6.4c-0.1,0.3,0.1,0.9,0.4,1.1c1.1,0.9,1.2,1.9,0.9,3.2
			c-0.1,0.7,0.2,1.4,0.1,2.1c0,1-0.1,2-0.3,3c-0.4,2.6-0.9,5.2-1.3,7.8c0,0.3,0.1,0.6,0.2,0.9C187.8-11.7,188.7-9.7,189.5-7.7z
			 M81.4-46.2c-0.9,0.5-1.6,1-2.4,1.3c-1.3,0.7-1.9,1.8-1.7,3.1c0.2,1,0.8,1.4,1.7,1c0.8-0.3,1.5-0.9,2.2-1.3
			C83.5-43.5,83.5-44.4,81.4-46.2z M191.6-44.5c1.1-4.3,0.3-8.3,0.9-12.2c0.1-0.5-0.2-1-0.4-1.7c-1.4,1.1-1.4,2.4-1.4,3.6
			c0,3,0.1,6,0.2,9.1C190.9-45.5,191.1-45.3,191.6-44.5z M83-20.7c-1.2-0.4-2-0.8-2.8-1c-0.5-0.2-1.3-0.4-1.7-0.2
			c-0.4,0.3-0.7,1.1-0.7,1.6c0.1,1.1,0.5,2.1,0.8,3.6C80.4-18.3,81.7-19.5,83-20.7z M199.6-189.5c0.9,1.5,1.7,2.9,2.6,4.4
			c0.3,0.5,0.5,1,0.9,1.4c0.6,0.6,1.2,0.7,1.8-0.2c-0.6-1-1.6-1.8-1.7-2.8C202.9-188.8,201.5-189.3,199.6-189.5z M75.9-25.2
			c-0.7-1-1.9-0.8-2.9-0.8c-0.8,0-2.1,0-2.4,0.5c-0.6,1,0.4,1.8,1.1,2.4C73.1-23.7,74.5-24.4,75.9-25.2z M56.8-211.2
			c-1.9-2.8-3-3.1-5.1-1.8c0.8,0.6,1.6,1.3,2.5,1.9C55-210.6,55.8-210.4,56.8-211.2z M31.3-215c0.1-0.1,0.2-0.1,0.2-0.2
			c-0.7-0.6-1.4-1.2-2-1.9c-1.3-1.4-1.9-1.3-3,0.5C28.1-216.1,29.7-215.6,31.3-215z M68.4-24.5c-0.6-0.6-0.9-1-1.3-1.2
			c-0.2-0.1-0.7,0.4-1,0.7c0.3,0.4,0.6,0.9,1,1.1C67.2-23.7,67.7-24.2,68.4-24.5z M215-133c-0.5,2.2-0.4,2.3,1.7,2.9
			C216.1-131.2,216.1-132.4,215-133z M46.4-214.3c1,0.1,1.8,0.6,2.3-0.5c0.1-0.2-0.3-0.7-0.6-0.8C47.1-216.1,46.7-215.5,46.4-214.3z
			 M187.3-26.4c-1,1-1,1-0.1,2C187.8-25.1,187.9-25.7,187.3-26.4z M129.5-223.7c-1.7-0.9-1.7-0.9-2.4-0.1
			C127.7-223.2,128.4-222.9,129.5-223.7z M152.4-218.1c0-0.2-0.1-0.4-0.1-0.7c-0.6,0.1-1.2,0.2-2.1,0.4
			C151.2-217.3,151.8-217.3,152.4-218.1z M197.5-193.3c-0.1,0.1-0.2,0.2-0.3,0.4c0.3,0.4,0.6,0.9,1,1.3c0.2,0.2,0.6,0.1,1,0.1
			c0-0.1,0.1-0.3,0.1-0.4C198.7-192.4,198.1-192.8,197.5-193.3z M27.3-186.8c-0.9,0.3-1.6,0.3-1.5,1.3
			C26.8-185.2,27.3-185.5,27.3-186.8z M140.9-223.9c-0.8-0.4-1.3-0.7-2.1-1.2C139.1-223.5,139.5-223.2,140.9-223.9z M29.7-193.8
			c1.1,0.3,1.6,0,1.7-1.2C30.3-195.1,29.8-194.9,29.7-193.8z M188.4-201c-0.1,0.1-0.3,0.3-0.4,0.4c0,0.9,0.3,1.5,1.9,1
			C189.3-200.2,188.8-200.6,188.4-201z M41.1-202.6c0-0.2,0-0.4,0-0.6c-0.4,0-0.9,0.1-1.3,0.1c0,0.2,0.1,0.6,0.1,0.6
			C40.3-202.5,40.7-202.6,41.1-202.6z M206.8-168.7c0.2,1.5,0.2,1.5,1.8,2C207.9-167.5,207.5-167.9,206.8-168.7z M134.2-221.5
			c-0.3-0.3-0.4-0.6-0.6-0.6c-0.3,0-0.6,0.1-0.9,0.2c0.2,0.2,0.3,0.6,0.5,0.7C133.5-221.2,133.8-221.4,134.2-221.5z M70.7-217.6
			c-0.5-0.4-0.7-0.7-0.9-0.7c-0.3,0-0.5,0.2-0.8,0.3c0.1,0.2,0.2,0.6,0.4,0.7C69.7-217.3,70-217.5,70.7-217.6z M198.3-188.1
			c-0.1,0.1-0.2,0.2-0.4,0.3c0.3,0.3,0.6,0.6,0.9,0.9c0.1-0.1,0.2-0.2,0.3-0.3C198.9-187.5,198.6-187.8,198.3-188.1z M18.5-155.1
			c0.3,0.3,0.6,0.6,0.8,0.6c0.2,0,0.5-0.4,0.5-0.6c0-0.2-0.3-0.6-0.5-0.6C19.1-155.7,18.8-155.4,18.5-155.1z M211.1-156.7
			c-0.2-0.1-0.4-0.3-0.6-0.3c-0.1,0-0.3,0.2-0.4,0.4c0.2,0.1,0.3,0.3,0.5,0.4C210.7-156.3,210.8-156.5,211.1-156.7z M27.7-191.8
			c-0.3-0.2-0.4-0.4-0.6-0.4c-0.1,0-0.3,0.2-0.4,0.4c0.2,0.2,0.3,0.4,0.5,0.4C27.2-191.4,27.4-191.6,27.7-191.8z M73.2-148.6
			c-0.1,0-0.2-0.1-0.3-0.1c0,0-0.1,0.1-0.1,0.2c0.1,0.1,0.2,0.2,0.2,0.3C73.1-148.4,73.1-148.5,73.2-148.6z M85.7,6.1
			c-0.1-0.1-0.2-0.2-0.2-0.3c-0.1,0.1-0.2,0.2-0.2,0.3c0,0,0.1,0.2,0.1,0.2C85.5,6.2,85.6,6.2,85.7,6.1z"/>
		<path d="M239.4,95c0.6-0.8,1-1.4,1.5-1.9c1.3-1.5,2.6-3,4-4.5c1.2-1.3,2.2-2.6,2.8-4.4c0.5-1.4,1.4-2.9,3.3-3.2
			c0.3-0.1,0.6-0.3,0.8-0.4c2-1.3,2.3-1.4,4,0.3c1.2,1.3,2.4,2.5,4.2,3.1c0.3,0.1,0.6,0.3,0.8,0.5c0.6,1.2,1.6,2.3,1.7,3.5
			c0.1,1.4-1.7,1.5-2.8,1.8c-2.6,0.6-5.2,0.9-7.7,1.6c-2.8,0.8-5.4,1.9-8.1,2.9C242.5,94.8,241.4,95.7,239.4,95z"/>
		<path d="M209.8,97.7c0.3-0.3,0.5-0.7,0.9-0.9c4.2-2.5,8.8-4.2,13.4-5.8c4.4-1.6,9-3,13.4-4.6c1.3-0.5,2.5-1.5,3.4-2.5
			c1.3-1.4,3.2-1.3,4.6-2.3c0.1-0.1,1.1,0.5,1.1,0.9c0,0.6-0.2,1.4-0.5,2c-2,3.1-5.1,4.6-8.3,5.8c-2.7,1-5.6,1.4-8.3,2.1
			c-2.7,0.7-5.4,1.4-8.1,2.2c-3.2,1.1-6.4,2.3-9.6,3.4c-0.5,0.2-1.1,0.2-1.7,0.3C209.9,98,209.8,97.8,209.8,97.7z"/>
		<path d="M49.3-55.4c0.9,1,0.8,2,0.3,2.8c-1.2,1.9-1.6,4.5-4.1,5.5C43.8-50,45.4-53.5,49.3-55.4z"/>
		<path d="M17.3-168.7c-0.6,0.5-1.1,0.9-1.8,1.4c-0.8-0.9-1.5-1.7-2.6-2.9c0.7-0.1,1.2-0.4,1.5-0.3C15.3-170,16.1-169.4,17.3-168.7z
			"/>
		<path d="M81.3,24.4c-0.8-1.2-1-2.1,0-2.7c0.4-0.2,1.3,0.3,2,0.6c0,0.2,0.1,0.4,0.1,0.6C82.7,23.3,82,23.8,81.3,24.4z"/>
		<path d="M84.5-235.2c0.4-0.4,0.5-0.7,0.8-0.9c0.7-0.4,1.5-0.7,2.1,0c0.2,0.2,0.4,0.8,0.3,1c-0.5,0.9-1.3,0.5-2.1,0.3
			C85.3-234.7,85.1-234.9,84.5-235.2z"/>
		<path d="M80-230.3c-1.4-0.1-2.6-0.2-3.9-0.2c0-0.1,0-0.3,0-0.4c0.9-0.3,1.7-0.7,2.6-0.9C79.6-232.1,79.9-231.5,80-230.3z"/>
		<path d="M10.9-165.6c-0.7,0.9-1.2,1.5-1.7,2.2C8.3-165,8.4-165.1,10.9-165.6z"/>
		<path d="M22.4,420c-0.8,0.7-1.1,0.9-1.4,1.1c-0.2-0.3-0.6-0.6-0.6-0.8c0-0.3,0.4-0.7,0.7-0.7C21.5,419.4,21.9,419.7,22.4,420z"/>
		<path d="M104.2,292.5c0.4-0.3,0.8-0.7,1-0.6c0.3,0.1,0.6,0.6,0.6,0.9c0,0.2-0.5,0.7-0.7,0.6C104.7,293.3,104.5,292.9,104.2,292.5z
			"/>
		<path d="M189.5,163.7c-0.3-0.4-0.6-0.8-0.8-1.1c0-0.1,0.5-0.5,0.6-0.5c0.3,0.2,0.6,0.5,0.9,0.8C190.2,163,189.8,163.4,189.5,163.7
			z"/>
		<path d="M264.4,84.7c-0.5,0.3-0.7,0.6-1,0.6c-0.3,0-0.5-0.2-0.8-0.4c0.1-0.2,0.3-0.6,0.4-0.6C263.5,84.3,263.8,84.5,264.4,84.7z"
			/>
		<path d="M81.9-233.9c-0.5,0.3-0.9,0.6-1.7,1c0.3-1.2,0.7-1.7,1.5-1.6C81.7-234.2,81.8-234.1,81.9-233.9z"/>
		<path d="M109.3,45.2c-0.4,0.3-0.8,0.6-0.8,0.5c-0.3-0.2-0.5-0.5-0.6-0.8c0-0.1,0.3-0.4,0.4-0.4C108.6,44.7,108.8,44.9,109.3,45.2z
			"/>
		<path d="M147.2-228.7c-0.4,0-0.8,0-1.3,0c0-0.2,0-0.3,0-0.5c0.4,0,0.8,0,1.3,0.1C147.2-228.9,147.2-228.8,147.2-228.7z"/>
		<path d="M139.9-233.8c-0.5,0.1-1,0.2-1.6,0.2c0-0.1,0-0.3-0.1-0.4c0.5-0.1,1-0.1,1.6-0.2C139.8-234,139.8-233.9,139.9-233.8z"/>
		<path d="M17-191.3c-0.4,0.2-0.9,0.4-1.3,0.7c-0.1-0.2-0.1-0.3-0.2-0.5C16.1-191.2,16.6-191.3,17-191.3
			C17.1-191.3,17-191.3,17-191.3z"/>
		<path class="st0" d="M272.2,264.6c-0.6,1.2-1,2.6-1.9,3.5c-1.5,1.4-3.2,2.6-5.1,3.5c-1.4,0.7-2.5,1.7-3.4,2.9
			c-0.5,0.6-0.9,1.3-1.3,2c-1.4,2.3-2.9,4.3-5.4,5.5c-1,0.5-1.6,1.6-2.4,2.3c-1.2,1.1-2.6,2.1-3.8,3.2c-0.7,0.6-1.4,1.3-2.1,2
			c-1.2,1.2-2.2,2.5-3.5,3.6c-0.6,0.5-1.3,0.8-2.1,1.1c-1.4,0.7-2.9,1.3-4.3,2c-0.2,0.1-0.4,0.3-0.6,0.4c-0.8,0.5-1.7,0.7-2.4,0
			c-0.7-0.8-0.1-1.5,0.3-2.1c0.4-0.7,0.9-1.4,1.5-1.9c3.1-2.5,6.2-5,9.3-7.5c1.5-1.2,2.7-2.6,4.1-4c1.2-1.2,2.4-2.6,3.6-3.8
			c2.2-2.2,4.3-4.6,7.4-5.9c1.1-0.5,1.8-1.8,2.8-2.6c1-0.8,2.1-1.4,3.1-2.2c0.7-0.6,1.4-1.2,2.1-1.9c0.6-0.6,1.2-1.3,2-1.7
			C271.2,262.5,272.1,263.2,272.2,264.6z"/>
		<path class="st0" d="M174.3,340.1c-0.3,2-1.6,3.3-3.1,4.4c-0.6,0.5-1.4,0.9-2.1,1.1c-1.8,0.5-3.1,1.4-4.2,3
			c-0.8,1.2-1.9,2.2-3.6,1.7c-0.1,0-0.3,0-0.5,0c-1.8,1-3.6,2-5.3,3c-0.7,0.4-1.3,0.9-2,1.2c-0.4,0.1-1,0-1.3-0.3
			c-0.2-0.3-0.3-1-0.1-1.3c0.5-0.7,1.2-1.7,1.9-1.9c2.6-0.7,3.8-2.8,5.2-4.7c0.8-1.1,1.6-2,3-2.1c0.4,0,0.9-0.1,1.1-0.3
			c2.1-1.8,4.7-2.6,7-3.9c0.8-0.5,1.7-1,2.6-1.2C174,338.3,174.5,338.9,174.3,340.1z"/>
		<path class="st0" d="M214.2,311.8c0.3,0.8,0.5,1.1,0.6,1.5c0.1,0.7-0.7,1.5-1.5,1.4c-0.3,0-0.8-0.6-0.8-0.6
			C212.9,313.6,213.3,313,214.2,311.8z"/>
		<path class="st0" d="M219.2,308.9c-0.8,0.4-1.2,0.9-1.6,0.8c-0.4,0-1.1-0.5-1.2-0.8c-0.1-0.8,0.5-1.1,1.2-1
			C218,308,218.4,308.4,219.2,308.9z"/>
		<path d="M230.2,474.7c0.2,1.1,0.3,1.9,0.4,2.9C229.4,476.7,229.4,476.7,230.2,474.7z"/>
		<path class="st0" d="M71.4-170c-1.4,0.7-1.8,1.8-1.3,3.4c0.3,0.9,0,1.9,0,2.9c-0.7,0.2-1.1,0.3-1.5,0.5c-1,0.5-1.6,1.8-0.9,2.6
			c1.9,2.2,0.8,4.4,0.3,6.7c-2.1-0.2-2.7,1.6-3.3,2.8c-0.7,1.3-1,3,0.2,4.5c1,1.5,0.4,2.1-2,2.1c-0.4,1.4-0.3,2.7,0.6,4
			c1.4,1.9,2.4,4,1.3,6.4c-0.2,0.4,0.2,1.2,0.4,1.7c0.2,0.4,0.6,0.7,0.9,1.1c-0.8,1-2.4,0.7-2.8,2.1c-0.3,1-0.9,2-1.4,3.1
			c-1.7-0.6-2.9-1.7-3.7-3.5c-1,1.4-2.2,1-3.5,0.6c-2.9-0.9-5.8-1.2-8.7-0.3c-2.4,0.7-4.8,1.3-7.2,2c-0.4,0.1-0.9,0.4-1.3,0.7
			c-3.4,2.2-6.8,4.5-10.1,6.7c-0.7,0.5-1.3,1.2-2,1.7c-0.7,0.5-1.5,1-2.7,1.7c-0.3-1.2-0.5-2-0.6-2.9c-0.2-5.9,0-11.9,1.6-17.6
			c1.5-5.4,3.6-10.6,5.5-15.8c2-5.4,5.2-10.1,8.4-14.8c1.8-2.7,4.2-5,7-6.8c2.4-1.5,4.6-3.4,7-5.1c2.2-1.5,4.5-3,7.5-2.2
			c0.7,0.2,1.5-0.3,2.3-0.5c0.9-0.2,1.8-0.6,2.7-0.8c1.8-0.5,3.3-0.4,3.9,1.8c2.8,1.9,3.5,4.5,2.7,7.7
			C70.5-172.4,71.1-171.3,71.4-170z"/>
		<path class="st0" d="M82.2-135.1c-0.4-1.1-0.7-1.9-1-2.7c-1.2-0.2-1.5,0.6-1.8,1.3c-0.5,1.2-0.9,2.6-1.5,3.8
			c-1.2,2.4-2,2.7-4.5,2.1c-0.4,0.4-0.9,0.8-1.4,1.2c-0.3-0.2-0.5-0.3-0.6-0.5c-0.1-0.4-0.2-0.8-0.2-1.2c0.2-3.1,0.4-6.2,0.7-9.3
			c0.1-1.1,0.7-2.1,1.2-3.1c0.4-0.8,1-1.6,1.5-2.4c0.3-0.4,0.6-0.8,1-0.9c1.1-0.3,1.5-0.9,1.8-1.9c0.5-1.4,1.1-1.5,2.9-1.1
			c1.2,0.3,1.9,0.8,1.5,2.2c-0.1,0.3-0.2,0.8-0.1,0.9c1.7,1.2,0.5,2.6,0.4,3.9c0,1.5,0.3,3,0.5,4.4C83-137.3,83.4-136.2,82.2-135.1z
			"/>
		<path class="st0" d="M189.5-7.7c-0.8-2-1.7-3.9-2.5-5.9c-0.1-0.3-0.2-0.6-0.2-0.9c0.4-2.6,0.9-5.2,1.3-7.8c0.2-1,0.2-2,0.3-3
			c0-0.7-0.3-1.5-0.1-2.1c0.3-1.3,0.2-2.3-0.9-3.2c-0.3-0.2-0.5-0.8-0.4-1.1c0.9-2.1,0.2-4.3,0.5-6.4c0-0.2,0.3-0.3,0.6-0.7
			c0.4,0.8,0.7,1.5,1.1,2.3c1.7-1.3,0.1-4.4,2.9-4.9c0.9,0.4,0.7,1.3,0.7,2c-0.3,3.7-0.8,7.3-0.9,10.9c-0.2,4.5-0.2,8.9-0.2,13.4
			C191.6-12.5,190.9-9.8,189.5-7.7z"/>
		<path class="st0" d="M81.4-46.2c2.1,1.7,2.1,2.7-0.1,4.1c-0.7,0.5-1.5,1-2.2,1.3c-0.9,0.4-1.5,0-1.7-1c-0.2-1.3,0.4-2.4,1.7-3.1
			C79.8-45.2,80.5-45.7,81.4-46.2z"/>
		<path class="st0" d="M191.6-44.5c-0.4-0.7-0.7-1-0.7-1.2c-0.1-3-0.2-6-0.2-9.1c0-1.2,0-2.5,1.4-3.6c0.2,0.7,0.5,1.2,0.4,1.7
			C191.9-52.8,192.7-48.9,191.6-44.5z"/>
		<path class="st0" d="M83-20.7c-1.4,1.3-2.7,2.4-4.3,3.9c-0.4-1.5-0.7-2.5-0.8-3.6c0-0.5,0.3-1.3,0.7-1.6c0.4-0.2,1.1,0,1.7,0.2
			C81.1-21.5,81.9-21.2,83-20.7z"/>
		<path class="st0" d="M199.6-189.5c2,0.1,3.3,0.7,3.6,2.8c0.1,1,1.1,1.8,1.7,2.8c-0.5,0.9-1.2,0.8-1.8,0.2
			c-0.4-0.4-0.7-0.9-0.9-1.4C201.3-186.5,200.4-188,199.6-189.5z"/>
		<path class="st0" d="M75.9-25.2c-1.5,0.7-2.8,1.4-4.2,2.1c-0.7-0.6-1.7-1.4-1.1-2.4c0.3-0.5,1.5-0.4,2.4-0.5
			C74-26,75.2-26.1,75.9-25.2z"/>
		<path class="st0" d="M56.8-211.2c-1,0.8-1.8,0.6-2.5,0.1c-0.9-0.6-1.7-1.3-2.5-1.9C53.8-214.3,54.8-214,56.8-211.2z"/>
		<path class="st0" d="M31.3-215c-1.6-0.5-3.2-1.1-4.8-1.6c1.1-1.8,1.7-1.8,3-0.5c0.6,0.7,1.3,1.3,2,1.9
			C31.4-215.2,31.3-215.1,31.3-215z"/>
		<path class="st0" d="M68.4-24.5c-0.7,0.3-1.2,0.7-1.4,0.6c-0.4-0.2-0.7-0.7-1-1.1c0.3-0.2,0.8-0.7,1-0.7
			C67.5-25.5,67.8-25,68.4-24.5z"/>
		<path class="st0" d="M215-133c1.1,0.6,1.1,1.8,1.7,2.9C214.6-130.7,214.5-130.9,215-133z"/>
		<path class="st0" d="M46.4-214.3c0.3-1.2,0.7-1.7,1.7-1.3c0.3,0.1,0.7,0.7,0.6,0.8C48.3-213.7,47.5-214.2,46.4-214.3z"/>
		<path class="st0" d="M187.3-26.4c0.7,0.7,0.5,1.3-0.1,2C186.3-25.5,186.3-25.5,187.3-26.4z"/>
		<path class="st0" d="M129.5-223.7c-1.1,0.8-1.8,0.5-2.4-0.1C127.8-224.6,127.8-224.6,129.5-223.7z"/>
		<path class="st0" d="M152.4-218.1c-0.6,0.8-1.2,0.9-2.2-0.3c0.9-0.2,1.5-0.3,2.1-0.4C152.3-218.6,152.3-218.3,152.4-218.1z"/>
		<path class="st0" d="M197.5-193.3c0.6,0.4,1.2,0.9,1.8,1.3c0,0.1-0.1,0.3-0.1,0.4c-0.3,0-0.8,0.1-1-0.1c-0.4-0.3-0.7-0.8-1-1.3
			C197.3-193,197.4-193.1,197.5-193.3z"/>
		<path class="st0" d="M27.3-186.8c0,1.3-0.5,1.6-1.5,1.3C25.7-186.5,26.4-186.5,27.3-186.8z"/>
		<path class="st0" d="M140.9-223.9c-1.4,0.7-1.8,0.3-2.1-1.2C139.6-224.6,140.1-224.3,140.9-223.9z"/>
		<path class="st0" d="M29.7-193.8c0.1-1.1,0.6-1.4,1.7-1.2C31.3-193.7,30.8-193.5,29.7-193.8z"/>
		<path class="st0" d="M188.4-201c0.4,0.4,0.8,0.9,1.4,1.5c-1.6,0.5-1.8-0.1-1.9-1C188.1-200.7,188.3-200.9,188.4-201z"/>
		<path class="st0" d="M41.1-202.6c-0.4,0-0.9,0.1-1.3,0.1c0,0-0.1-0.4-0.1-0.6c0.4,0,0.9-0.1,1.3-0.1
			C41.1-203,41.1-202.8,41.1-202.6z"/>
		<path class="st0" d="M206.8-168.7c0.7,0.7,1.1,1.2,1.8,2C207-167.1,207-167.1,206.8-168.7z"/>
		<path class="st0" d="M134.2-221.5c-0.5,0.1-0.8,0.3-1,0.2c-0.2-0.1-0.3-0.4-0.5-0.7c0.3-0.1,0.6-0.2,0.9-0.2
			C133.8-222.1,134-221.8,134.2-221.5z"/>
		<path class="st0" d="M70.7-217.6c-0.7,0.1-1,0.3-1.3,0.2c-0.2,0-0.3-0.4-0.4-0.7c0.3-0.1,0.6-0.3,0.8-0.3
			C70-218.3,70.2-218,70.7-217.6z"/>
		<path class="st0" d="M198.3-188.1c0.3,0.3,0.6,0.6,0.9,0.9c-0.1,0.1-0.2,0.2-0.3,0.3c-0.3-0.3-0.6-0.6-0.9-0.9
			C198.1-187.9,198.2-188,198.3-188.1z"/>
		<path class="st0" d="M18.5-155.1c0.4-0.3,0.6-0.6,0.8-0.6c0.2,0,0.5,0.4,0.5,0.6c0,0.2-0.3,0.5-0.5,0.6
			C19.1-154.5,18.8-154.9,18.5-155.1z"/>
		<path class="st0" d="M211.1-156.7c-0.3,0.3-0.4,0.4-0.5,0.4c-0.2-0.1-0.4-0.2-0.5-0.4c0.1-0.1,0.3-0.4,0.4-0.4
			C210.7-157,210.9-156.8,211.1-156.7z"/>
		<path class="st0" d="M27.7-191.8c-0.2,0.2-0.4,0.4-0.6,0.4c-0.2,0-0.3-0.3-0.5-0.4c0.1-0.1,0.3-0.4,0.4-0.4
			C27.2-192.2,27.4-192,27.7-191.8z"/>
		<path class="st0" d="M73.2-148.6c-0.1,0.1-0.1,0.2-0.2,0.3c-0.1-0.1-0.2-0.2-0.2-0.3c0,0,0.1-0.2,0.1-0.2
			C73-148.7,73.1-148.6,73.2-148.6z"/>
		<path class="st0" d="M85.7,6.1c-0.1,0.1-0.2,0.1-0.3,0.2c0,0-0.1-0.1-0.1-0.2c0.1-0.1,0.1-0.2,0.2-0.3C85.6,5.9,85.6,6,85.7,6.1z"
			/>
	</g>
</g>
<text transform="matrix(1 0 0 1 -101 50)" class="st1 st2 st3">Baidu</text>
<text transform="matrix(1 0 0 1 -104 124)" class="st4 st2 st5">Empire</text>
</svg>
